<?xml version="1.0" encoding="UTF-8" standalone="no"?>
<svg width="21px" height="16px" viewBox="0 0 21 16" version="1.1" xmlns="http://www.w3.org/2000/svg" xmlns:xlink="http://www.w3.org/1999/xlink" xmlns:sketch="http://www.bohemiancoding.com/sketch/ns">
    <!-- Generator: Sketch 3.3.3 (12081) - http://www.bohemiancoding.com/sketch -->
    <title>Fill 141 Copy 4</title>
    <desc>Created with Sketch.</desc>
    <defs></defs>
    <g id="Home" stroke="none" stroke-width="1" fill="none" fill-rule="evenodd" sketch:type="MSPage">
        <g id="ÜBER-UNS" sketch:type="MSArtboardGroup" transform="translate(-255.000000, -1041.000000)" stroke="#FFFFFF" stroke-width="2" fill="#9B9DA0">
            <g id="kriterien" sketch:type="MSLayerGroup" transform="translate(256.000000, 967.000000)">
                <path d="M18.2241223,75.1635622 C18.1006546,75.0645587 17.9206135,75.0829068 17.8212277,75.2067568 L9.72740341,85.2282828 C9.7193761,85.2386036 9.71211329,85.2489245 9.70523274,85.2600098 C9.70293922,85.2638323 9.7006457,85.2680371 9.69796993,85.2726242 L7.50766043,88.0057329 C7.44382419,88.0840947 7.35590601,88.1314941 7.25996051,88.1391392 C7.16057474,88.1444907 7.07036304,88.113146 6.99697047,88.0470162 L0.718083245,82.3384504 C0.60149609,82.2325663 0.419925931,82.2405936 0.3128951,82.3579453 C0.206628776,82.4749147 0.215038341,82.6564849 0.332390002,82.7627512 L6.61204173,88.4720815 C6.78634909,88.6288052 7.00423328,88.7132831 7.2324383,88.7132831 C7.25613798,88.7132831 7.27983767,88.7125186 7.3039196,88.7106073 C7.55811782,88.6911124 7.78823411,88.5691737 7.95374965,88.3658152 L10.1719636,85.5979214 C10.1792264,85.5879829 10.1868715,85.576133 10.193752,85.5635187 L18.2673169,75.5668391 C18.3667027,75.4437536 18.3472078,75.2633302 18.2241223,75.1635622" id="Fill-141-Copy-4" sketch:type="MSShapeGroup"></path>
            </g>
        </g>
    </g>
</svg>