<?xml version="1.0" encoding="UTF-8" standalone="no"?>
<svg width="50px" height="50px" viewBox="0 0 50 50" version="1.1" xmlns="http://www.w3.org/2000/svg" xmlns:xlink="http://www.w3.org/1999/xlink" xmlns:sketch="http://www.bohemiancoding.com/sketch/ns">
    <!-- Generator: Sketch 3.3.3 (12081) - http://www.bohemiancoding.com/sketch -->
    <title>Facebook Copy 2</title>
    <desc>Created with Sketch.</desc>
    <defs></defs>
    <g id="Home" stroke="none" stroke-width="1" fill="none" fill-rule="evenodd" sketch:type="MSPage">
        <g id="DEUTSCH-LERNEN" sketch:type="MSArtboardGroup" transform="translate(-982.000000, -3906.000000)" fill="#FFFFFF">
            <g id="footer" sketch:type="MSLayerGroup" transform="translate(-1.000000, 3800.000000)">
                <g id="Container-5-Copy-2" transform="translate(126.000000, 49.000000)" sketch:type="MSShapeGroup">
                    <g id="social-btns" transform="translate(857.000000, 57.000000)">
                        <g id="Facebook-Copy-2">
                            <path d="M25,50 C38.8071187,50 50,38.8071187 50,25 C50,11.1928813 38.8071187,0 25,0 C11.1928813,0 0,11.1928813 0,25 C0,38.8071187 11.1928813,50 25,50 Z M27.0475047,38.8420688 L27.0475047,26.1594598 L30.4910667,26.1594598 L30.947413,21.7889625 L27.0475047,21.7889625 L27.0533552,19.6014865 C27.0533552,18.4615935 27.1598848,17.8508128 28.7702608,17.8508128 L30.9230356,17.8508128 L30.9230356,13.4798206 L27.478986,13.4798206 C23.3421285,13.4798206 21.886062,15.599982 21.886062,19.1654267 L21.886062,21.7894575 L19.3074127,21.7894575 L19.3074127,26.1599548 L21.886062,26.1599548 L21.886062,38.8420688 L27.0475047,38.8420688 Z" id="Oval-156"></path>
                        </g>
                    </g>
                </g>
            </g>
        </g>
    </g>
</svg>