<?xml version="1.0" encoding="UTF-8" standalone="no"?>
<svg width="143px" height="52px" viewBox="0 0 143 52" version="1.1" xmlns="http://www.w3.org/2000/svg" xmlns:xlink="http://www.w3.org/1999/xlink" xmlns:sketch="http://www.bohemiancoding.com/sketch/ns">
    <!-- Generator: Sketch 3.3.2 (12043) - http://www.bohemiancoding.com/sketch -->
    <title>logo</title>
    <desc>Created with Sketch.</desc>
    <defs></defs>
    <g id="Home" stroke="none" stroke-width="1" fill="none" fill-rule="evenodd" sketch:type="MSPage">
        <g id="Startseite-Desktop" sketch:type="MSArtboardGroup" transform="translate(-46.000000, -54.000000)">
            <g id="Top-Bar" sketch:type="MSLayerGroup" transform="translate(0.000000, 38.000000)">
                <g id="logo" transform="translate(45.854978, 15.500000)" sketch:type="MSShapeGroup">
                    <path d="M0.536262507,48.7727299 L5.88569096,23.7027576 C7.03319674,19.1181331 9.31741109,15.5712425 12.7401335,13.0626857 C15.5900028,10.9848184 18.690008,9.94588478 22.0419486,9.94588478 C25.9301517,9.94588478 28.8430049,11.1203837 30.7781087,13.4687815 C32.391695,15.4230805 33.1978883,17.870453 33.1978883,20.8096994 C33.1978883,21.3477614 33.1792931,21.7868489 33.1439022,22.1275615 C33.1079114,22.4508786 33.0359299,22.9079614 32.9291572,23.5000096 C32.2657273,26.9233319 30.8320949,29.8991689 28.6282599,32.4269208 C25.7058092,35.7974566 21.9693672,37.4824246 17.4177342,37.4824246 C16.0914743,37.4824246 14.9001797,37.3720529 13.8426509,37.1519094 C12.7317357,36.938964 11.4948528,36.412299 10.1332019,35.5725143 L11.2351194,30.4906173 C12.9740736,31.4407737 13.8786416,31.9326476 13.9500233,31.969838 C15.1509154,32.5606865 16.4501823,32.8558109 17.847824,32.8558109 C20.374976,32.8558109 22.578811,31.9782359 24.4605285,30.2206865 C26.2888597,28.4643368 27.4981497,26.2233114 28.0895981,23.4970104 C28.1615796,23.2102839 28.2155658,22.7897917 28.2521564,22.2343341 C28.2875473,21.7142675 28.3049428,21.4359388 28.3049428,21.4005479 C28.3049428,19.266895 27.6247172,17.581927 26.2618667,16.3450441 C24.8816206,15.089566 23.1984521,14.4621269 21.2087622,14.4621269 C19.0043274,14.4621269 16.9528534,15.2683202 15.0531405,16.8801069 C12.7407334,18.8320065 11.2351194,21.4923244 10.5362986,24.859861 L5.40221492,48.7727299 L0.536262507,48.7727299" id="Fill-3" fill="#EE9F2D"></path>
                    <path d="M36.7789702,10.4965436 L41.4265786,10.4965436 L40.7547508,13.5773537 C41.6329257,12.5198248 42.653264,11.6764411 43.8181654,11.0496018 C45.2146073,10.3135905 46.7376169,9.94588478 48.3859942,9.94588478 L49.8904085,9.94588478 L48.8970632,14.5724986 L47.7405597,14.5724986 C45.2505981,14.5724986 43.1739306,15.6204299 41.5075578,17.7168924 C40.3432563,19.1859157 39.5010722,20.9680588 38.9816054,23.0651211 L36.0273629,36.9317658 L31.1638098,36.9317658 L36.7789702,10.4965436" id="Fill-4" fill="#EE9F2D"></path>
                    <path d="M46.3597137,36.9317658 L52.0036667,10.4965436 L56.8414263,10.4965436 L51.2244665,36.9317658 L46.3597137,36.9317658" id="Fill-5" fill="#EE9F2D"></path>
                    <path d="M56.378345,36.9317658 L60.2491526,18.7618244 C60.8412008,16.3786355 62.1758586,14.3361592 64.2549256,12.6343955 C66.4953511,10.842055 69.085487,9.94588478 72.0247334,9.94588478 C73.7996784,9.94588478 75.2687017,10.3849722 76.433603,11.2637469 C77.2050053,11.8557951 77.9038261,12.6625882 78.5306654,13.6847262 C79.4808218,12.6277972 80.6547208,11.766418 82.0523624,11.1029881 C83.6653489,10.330986 85.4139006,9.94588478 87.2950183,9.94588478 C89.4460667,9.94588478 91.2384072,10.6261104 92.6720396,11.988961 C94.1056721,13.350012 94.8224883,15.03498 94.8224883,17.0420654 C94.8224883,17.6335137 94.7685021,18.2063669 94.6617295,18.7618244 L90.8167153,36.9317658 L85.9507629,36.9317658 L89.4718601,20.2428447 C89.5978278,19.7413733 89.6608117,19.1943136 89.6608117,18.6034651 C89.6608117,17.4565591 89.4010783,16.5345955 88.8816115,15.8351748 C88.2541723,14.9935906 87.2776227,14.5724986 85.9507629,14.5724986 C84.1230315,14.5724986 82.6174176,15.1903401 81.4345208,16.4260233 C80.5203552,17.429566 79.9019138,18.7018398 79.5791965,20.2428447 L76.0574995,36.9317658 L71.0841746,36.9317658 L74.5518855,20.5649621 C74.623867,20.2782357 74.6778532,19.9429216 74.713844,19.5572205 C74.7492349,19.1721193 74.7672303,18.8362054 74.7672303,18.5494789 C74.7672303,15.8975588 73.4859588,14.5724986 70.9234158,14.5724986 C69.417202,14.5724986 68.1893168,14.957 67.2403601,15.7272025 C66.0742591,16.731345 65.2146795,18.459502 64.6592219,20.9140726 L61.2442975,36.9317658 L56.378345,36.9317658" id="Fill-6" fill="#EE9F2D"></path>
                    <path d="M98.8456568,10.4965436 L103.711609,10.4965436 L100.351271,26.4254596 C100.279889,26.9989125 100.243298,27.4212043 100.243298,27.6899354 C100.243298,29.2687306 100.736372,30.5158108 101.721919,31.4305763 C102.672076,32.3813325 103.86457,32.8558109 105.298802,32.8558109 C107.127733,32.8558109 108.794106,32.1929808 110.30032,30.8655212 C111.769943,29.5920477 112.746493,28.1122271 113.231168,26.4254596 L116.591507,10.4965436 L121.431066,10.4965436 L118.071327,26.1825218 C117.407298,29.4288895 115.776316,32.1108019 113.177182,34.2276591 C110.524063,36.3973029 107.566221,37.4824246 104.304257,37.4824246 C101.740515,37.4824246 99.6524499,36.8285923 98.0388636,35.519128 C96.192537,34.0123143 95.2693737,31.8054802 95.2693737,28.8992253 C95.2693737,27.7883101 95.4037392,26.6677974 95.6730702,25.5370873 L98.8456568,10.4965436" id="Fill-7" fill="#EE9F2D"></path>
                    <path d="M118.013742,32.4161236 L131.296137,32.4161236 L131.67224,32.5234961 C132.568411,32.4515145 133.231241,32.3087511 133.66133,32.0934063 C134.503514,31.6807122 135.060172,31.0352776 135.328303,30.1565029 C135.364894,30.0137395 135.382289,29.824788 135.382289,29.5932474 C135.382289,28.498528 134.110015,27.5123809 131.564268,26.634206 C129.628564,26.0067669 128.140946,25.5310889 127.102012,25.2089715 C124.968959,24.4381691 123.462745,23.6403736 122.58397,22.8161849 C121.527641,21.8294379 120.997977,20.5835574 120.997977,19.0767437 C120.997977,18.6472538 121.051963,18.1715758 121.159936,17.652109 C121.643412,15.0523755 123.041653,13.1430651 125.35406,11.9235777 C127.10981,11.0088123 129.235065,10.5511296 131.726226,10.5511296 L143.124504,10.5511296 L142.129959,15.1777434 L129.790523,15.1777434 C127.65687,15.1777434 126.482971,15.9665411 126.267626,17.5447365 L126.267626,17.7594814 C126.267626,18.7456286 127.038428,19.5524217 128.580033,20.1798609 C129.171481,20.4311964 130.766473,20.8882792 133.366206,21.5517091 C135.874763,22.3231114 137.721089,23.2462747 138.903986,24.3211991 C140.032897,25.4147187 140.597352,26.7139856 140.597352,28.2201994 C140.597352,28.7762568 140.507975,29.3857006 140.328621,30.0485306 C139.557818,32.7916273 138.052205,34.7189332 135.811779,35.8292485 C134.342756,36.5646599 132.487431,36.9317658 130.247606,36.9317658 L117.073183,36.9317658 L118.013742,32.4161236" id="Fill-8" fill="#EE9F2D"></path>
                    <path d="M30.231049,41.4330117 L31.0390418,41.4330117 C31.1686086,40.4534629 31.3125717,39.7840345 31.4721308,39.4229271 C31.63109,39.0624195 31.8482344,38.7924887 32.1205645,38.6131347 C32.3928947,38.4337807 32.7300083,38.3444036 33.1325051,38.3444036 C33.6543713,38.3444036 34.1378473,38.4931655 34.5811337,38.7924887 L34.3741867,40.2963032 C34.1210516,40.0713609 33.8649173,39.9591896 33.6063836,39.9591896 C33.4132331,39.9591896 33.2716694,40.0293716 33.1822923,40.1691358 C33.0923154,40.3094998 32.9969399,40.7305918 32.8955658,41.4330117 L34.0430716,41.4330117 L33.8421232,43.0340013 L32.6880191,43.0340013 L31.8632305,48.9568827 L30.0193033,48.9568827 L30.8290957,43.0340013 L30.0301005,43.0340013 L30.231049,41.4330117" id="Fill-9" fill="#C5222A"></path>
                    <path d="M34.7286958,41.4330117 L36.374074,41.4330117 L36.2427077,42.4533501 C36.7357812,41.6501561 37.3284293,41.2482591 38.0206518,41.2482591 C38.1862094,41.2482591 38.3595649,41.2932476 38.5395188,41.381425 L37.8688907,43.0669928 C37.7279269,43.0172056 37.6247533,42.9914122 37.5581704,42.9914122 C37.1964631,42.9914122 36.8725462,43.1995588 36.5876192,43.6158521 C36.3026923,44.0315455 36.07775,44.8713302 35.9133921,46.135806 L35.5462862,48.9568827 L33.7017591,48.9568827 L34.7286958,41.4330117" id="Fill-10" fill="#C5222A"></path>
                    <path d="M44.3160377,46.7458496 L45.9434205,47.5886335 C45.578714,48.0661111 45.0964376,48.444614 44.494192,48.7235425 C43.8925463,49.0012713 43.2249175,49.1404356 42.4913056,49.1404356 C41.3426001,49.1404356 40.4374322,48.8183182 39.775202,48.1746832 C39.1135716,47.5310483 38.7824565,46.6756676 38.7824565,45.6085412 C38.7824565,44.3902535 39.1963504,43.3591179 40.024738,42.5145344 C40.851326,41.6705508 41.8518695,41.2482591 43.0233692,41.2482591 C43.7287883,41.2482591 44.3568273,41.4024196 44.9080859,41.7101407 C45.4593446,42.0172619 45.8942331,42.4653471 46.2121516,43.0531963 C46.5300701,43.6416455 46.6896292,44.279282 46.6896292,44.9679054 C46.6896292,45.1844499 46.6662352,45.4369852 46.6206468,45.726111 L40.6101879,45.726111 C40.6287831,46.2485771 40.800939,46.6654702 41.1272553,46.9755907 C41.4523719,47.2851113 41.9010569,47.4404715 42.47391,47.4404715 C43.1661326,47.4404715 43.7803751,47.2089308 44.3160377,46.7458496 L44.3160377,46.7458496 Z M44.7905161,44.3800561 C44.6519516,43.9235732 44.4216107,43.5786616 44.0976937,43.3441217 C43.7737768,43.1083822 43.3832769,42.9914122 42.9249944,42.9914122 C42.4733102,42.9914122 42.0636152,43.1119813 41.6989087,43.3537193 C41.3330026,43.5954573 41.0552738,43.9379695 40.866922,44.3800561 L44.7905161,44.3800561 L44.7905161,44.3800561 Z" id="Fill-11" fill="#C5222A"></path>
                    <path d="M48.7818927,41.4330117 L50.6270196,41.4330117 L50.5154482,42.2506021 C51.1848766,41.5829733 51.9346844,41.2482591 52.7666711,41.2482591 C53.1025849,41.2482591 53.418104,41.3058443 53.7120287,41.420415 C54.0047536,41.5349856 54.2428926,41.6819479 54.424646,41.8607021 C54.6069992,42.0394563 54.7629592,42.2889923 54.8931258,42.60991 C55.2386373,42.165424 55.645333,41.8271107 56.1114135,41.5955701 C56.577494,41.3646293 57.0627696,41.2482591 57.5660405,41.2482591 C58.1982784,41.2482591 58.7231439,41.459405 59.1382374,41.8798972 C59.553331,42.3009892 59.7614776,42.8468492 59.7614776,43.5198767 C59.7614776,43.7718121 59.7386835,44.0873312 59.6924953,44.4640346 L59.0788527,48.9568827 L57.2343256,48.9568827 L57.7621902,45.0890744 C57.8311726,44.5702074 57.8659636,44.2270954 57.8659636,44.0573389 C57.8659636,43.7046293 57.7765865,43.4358982 57.5984322,43.2523453 C57.4202779,43.0693922 57.1683425,42.9770159 56.8438257,42.9770159 C56.5277068,42.9770159 56.2085886,43.0885873 55.8864712,43.3123299 C55.5643537,43.5348728 55.3184168,43.8311969 55.1480605,44.201302 C54.9795037,44.5714071 54.8367403,45.2078439 54.72097,46.1094127 L54.3316698,48.9568827 L52.4871427,48.9568827 L53.0461994,44.8611328 C53.0923875,44.5294178 53.1157815,44.2462904 53.1157815,44.0117506 C53.1157815,43.6854342 53.020406,43.4263007 52.8296549,43.2355496 C52.6401035,43.0447985 52.3893678,42.9488231 52.0780476,42.9488231 C51.7811237,42.9488231 51.475802,43.0513968 51.1626823,43.2565442 C50.8489627,43.4622914 50.6048253,43.7412199 50.4314698,44.0933297 C50.2569145,44.4460392 50.1213493,44.9865007 50.0241742,45.7147139 L49.5988832,48.9568827 L47.7543562,48.9568827 L48.7818927,41.4330117" id="Fill-12" fill="#C5222A"></path>
                    <path d="M68.056151,38.5285564 L69.9150743,38.5285564 L68.4760433,48.9568827 L66.6315162,48.9568827 L66.7424878,48.1428914 C66.3405908,48.5153959 65.9650871,48.7739296 65.6165764,48.9202921 C65.2674659,49.0666545 64.8757664,49.1404356 64.4414777,49.1404356 C63.4433336,49.1404356 62.6491373,48.7751293 62.0600883,48.0439168 C61.4710393,47.3133041 61.175915,46.4615225 61.175915,45.4915712 C61.175915,44.7507611 61.3648665,44.0459418 61.7421698,43.3765134 C62.1182734,42.7076849 62.6239437,42.1858187 63.2591809,41.8115147 C63.894418,41.4366108 64.5584477,41.2482591 65.2518699,41.2482591 C65.7173506,41.2482591 66.1462406,41.3556316 66.5397397,41.5691768 C66.9332389,41.7821222 67.2571558,42.0922427 67.5132901,42.500738 L68.056151,38.5285564 L68.056151,38.5285564 Z M64.8691681,47.496857 C65.3226518,47.496857 65.7191501,47.3960829 66.0580632,47.1939347 C66.3969763,46.9911867 66.6807036,46.6744679 66.9098449,46.2419788 C67.139586,45.8100895 67.2541566,45.3686027 67.2541566,44.9175183 C67.2541566,44.3254701 67.0820007,43.8497921 66.7364893,43.4892845 C66.3909779,43.1293768 65.9350948,42.9488231 65.3694398,42.9488231 C64.7108087,42.9488231 64.151752,43.1905611 63.6928697,43.6722376 C63.2333875,44.1551138 63.0036464,44.7777542 63.0036464,45.5401587 C63.0036464,46.128008 63.1782016,46.6006868 63.5261124,46.9599947 C63.8740232,47.3181028 64.3209086,47.496857 64.8691681,47.496857 L64.8691681,47.496857 Z" id="Fill-13" fill="#C5222A"></path>
                    <path d="M75.5866202,42.4905406 L74.7126443,43.8971799 C74.4865023,43.5630656 74.2501629,43.3165288 74.0024264,43.1575696 C73.75409,42.9992102 73.5231493,42.9206303 73.3072046,42.9206303 C73.1416471,42.9206303 73.0018829,42.9668185 72.8873123,43.058595 C72.7721418,43.1503714 72.7151564,43.253545 72.7151564,43.3687154 C72.7151564,43.4790871 72.7607447,43.5894588 72.8519214,43.6998305 C72.9394989,43.8102022 73.2034312,44.0231476 73.6443182,44.3410661 C74.3455384,44.8467365 74.8086197,45.2804253 75.0311626,45.6415327 C75.2531057,46.0020403 75.3652769,46.3937398 75.3652769,46.8160316 C75.3652769,47.3726889 75.1355359,47.8993538 74.6760537,48.3960265 C74.2171713,48.8926991 73.5519419,49.1404356 72.6809652,49.1404356 C72.1776942,49.1404356 71.7206114,49.0390616 71.3079172,48.8363136 C70.8958229,48.6335656 70.435141,48.2622608 69.9276711,47.7223992 L71.0685786,46.3943397 C71.5850462,47.0727658 72.1501013,47.4122787 72.7631441,47.4122787 C73.0072815,47.4122787 73.2022315,47.3540936 73.3473943,47.2371236 C73.4925571,47.1195538 73.5651385,46.9803894 73.5651385,46.8196307 C73.5651385,46.6912636 73.5099526,46.5598972 73.3989811,46.4237322 C73.2892092,46.2887668 72.9874866,46.0464289 72.494413,45.6973184 C71.9239593,45.2936219 71.5304602,44.946311 71.3145155,44.6571851 C71.0103935,44.2534886 70.8580326,43.8263981 70.8580326,43.3765134 C70.8580326,42.7472748 71.0967714,42.235606 71.5736491,41.8409072 C72.0505268,41.4456085 72.6143823,41.2482591 73.2646155,41.2482591 C73.7198988,41.2482591 74.1535876,41.3568313 74.5638824,41.5727759 C74.9735774,41.7893204 75.3148899,42.0952419 75.5866202,42.4905406" id="Fill-14" fill="#C5222A"></path>
                    <path d="M78.1533621,51.705378 L76.308835,51.705378 L77.713075,41.4330117 L79.5426059,41.4330117 L79.4304347,42.2637987 C79.8263332,41.880497 80.1970381,41.6159648 80.54075,41.4696024 C80.8850617,41.3214403 81.2707628,41.2482591 81.6996529,41.2482591 C82.6887993,41.2482591 83.4709987,41.6147651 84.0498503,42.3453778 C84.6287019,43.0765903 84.9178278,43.9253727 84.9178278,44.891725 C84.9178278,45.6319352 84.7318754,46.3373543 84.3599708,47.0091821 C83.9880661,47.6810098 83.4883942,48.2034758 82.8609551,48.5783797 C82.2341158,48.9532836 81.5808833,49.1404356 80.9006577,49.1404356 C80.4411755,49.1404356 80.0170843,49.0354625 79.6259845,48.823117 C79.2354847,48.612571 78.9157666,48.30425 78.6680301,47.8999537 L78.1533621,51.705378 L78.1533621,51.705378 Z M81.2569664,42.8924376 C80.8142799,42.8924376 80.4255795,42.9950113 80.0902655,43.1983591 C79.7549515,43.4035065 79.4748233,43.721425 79.2486813,44.1533143 C79.0231391,44.5858034 78.910368,45.0266903 78.910368,45.4771748 C78.910368,46.0668237 79.0801245,46.5419019 79.4196374,46.9018096 C79.7597502,47.2605176 80.2078354,47.4404715 80.7644926,47.4404715 C81.4117267,47.4404715 81.9611858,47.1993333 82.41287,46.7182566 C82.8645542,46.2365801 83.0906962,45.6145396 83.0906962,44.8527349 C83.0906962,44.2666852 82.9185404,43.7922069 82.5772279,43.4322991 C82.2353155,43.0717916 81.7944286,42.8924376 81.2569664,42.8924376 L81.2569664,42.8924376 Z" id="Fill-15" fill="#C5222A"></path>
                    <path d="M86.6297888,41.4330117 L88.2745671,41.4330117 L88.1432008,42.4533501 C88.6368742,41.6501561 89.2295223,41.2482591 89.9211449,41.2482591 C90.0873023,41.2482591 90.2606579,41.2932476 90.4400119,41.381425 L89.7693839,43.0669928 C89.62842,43.0172056 89.5246466,42.9914122 89.4592634,42.9914122 C89.0963564,42.9914122 88.7724395,43.1995588 88.4881124,43.6158521 C88.2031854,44.0315455 87.9782431,44.8713302 87.8144851,46.135806 L87.4467793,48.9568827 L85.6022523,48.9568827 L86.6297888,41.4330117" id="Fill-16" fill="#C5222A"></path>
                    <path d="M97.1234983,41.4330117 L98.9830215,41.4330117 L97.9404888,48.9568827 L96.0959618,48.9568827 L96.2075332,48.1392923 C95.8068359,48.5123966 95.431932,48.7727299 95.0840212,48.9196922 C94.7361104,49.0666545 94.3450107,49.1404356 93.9119217,49.1404356 C92.9155772,49.1404356 92.1237802,48.7751293 91.5365308,48.0439168 C90.9480816,47.3133041 90.6547568,46.4615225 90.6547568,45.4915712 C90.6547568,44.7507611 90.8425087,44.0459418 91.2186123,43.3765134 C91.5947159,42.7076849 92.0997864,42.1858187 92.7338238,41.8115147 C93.3672614,41.4366108 94.0306913,41.2482591 94.722314,41.2482591 C95.1865949,41.2482591 95.6148851,41.3544319 96.0077844,41.5655778 C96.4000838,41.7773235 96.7240007,42.0856444 96.9795352,42.4899408 L97.1234983,41.4330117 L97.1234983,41.4330117 Z M94.3468102,47.496857 C94.8014937,47.496857 95.1973922,47.3960829 95.5369051,47.1939347 C95.8752184,46.9917865 96.1595455,46.6744679 96.3886867,46.2425786 C96.6184278,45.8112892 96.7335983,45.3698024 96.7335983,44.9193179 C96.7335983,44.3266698 96.5602427,43.8509918 96.2147313,43.4898844 C95.8692199,43.1293768 95.4133368,42.9488231 94.8476818,42.9488231 C94.1890507,42.9488231 93.6305939,43.1905611 93.1717115,43.6722376 C92.7122293,44.1551138 92.4830881,44.7777542 92.4830881,45.5401587 C92.4830881,46.128008 92.6564436,46.6006868 93.0043544,46.9599947 C93.3522652,47.3181028 93.7997505,47.496857 94.3468102,47.496857 L94.3468102,47.496857 Z" id="Fill-17" fill="#C5222A"></path>
                    <path d="M107.825954,42.9950113 L106.261555,43.8443935 C105.818869,43.2853368 105.223821,43.0058085 104.476413,43.0058085 C103.973742,43.0058085 103.528656,43.1119813 103.140556,43.3249267 C102.753055,43.5384719 102.443534,43.846193 102.213193,44.2498895 C101.982253,44.653586 101.867082,45.0800767 101.867082,45.5287616 C101.867082,46.1064135 102.050035,46.5688949 102.414142,46.9174056 C102.778848,47.2659162 103.27912,47.4404715 103.915557,47.4404715 C104.797331,47.4404715 105.472758,47.1447473 105.943037,46.5538988 L107.397064,47.5766366 C106.98617,48.0661111 106.4763,48.4488129 105.864457,48.725342 C105.254414,49.002471 104.573588,49.1404356 103.821381,49.1404356 C102.651081,49.1404356 101.727918,48.8183182 101.052491,48.1746832 C100.377064,47.5310483 100.039351,46.6804663 100.039351,45.6223376 C100.039351,44.4130477 100.456844,43.3813122 101.29063,42.5283309 C102.125616,41.6753496 103.199341,41.2482591 104.513604,41.2482591 C105.993424,41.2482591 107.097141,41.8313096 107.825954,42.9950113" id="Fill-18" fill="#C5222A"></path>
                    <path d="M110.435285,38.5285564 L112.280412,38.5285564 L111.778341,42.204414 C112.48556,41.5673773 113.220971,41.2482591 113.983975,41.2482591 C114.636608,41.2482591 115.171071,41.4546062 115.586764,41.8667005 C116.003658,42.2775952 116.211204,42.7958623 116.211204,43.4221018 C116.211204,43.7166262 116.172214,44.1557137 116.093635,44.7399639 L115.517782,48.9568827 L113.673255,48.9568827 L114.234711,44.8401382 C114.290497,44.4178465 114.31809,44.1017275 114.31809,43.8911815 C114.31809,43.588859 114.231712,43.3555188 114.058956,43.1935603 C113.885001,43.0298023 113.639064,42.9488231 113.319946,42.9488231 C113.009825,42.9488231 112.700904,43.0555957 112.390784,43.2697408 C112.081863,43.4832861 111.843124,43.7796101 111.677567,44.1593127 C111.51081,44.5390154 111.358449,45.250433 111.219284,46.2941654 L110.855777,48.9568827 L109.01125,48.9568827 L110.435285,38.5285564" id="Fill-19" fill="#C5222A"></path>
                    <path d="M123.166421,46.7458496 L124.794404,47.5886335 C124.429697,48.0661111 123.946821,48.444614 123.345175,48.7235425 C122.74353,49.0012713 122.074701,49.1404356 121.341689,49.1404356 C120.192983,49.1404356 119.287816,48.8183182 118.626185,48.1746832 C117.964555,47.5310483 117.63284,46.6756676 117.63284,45.6085412 C117.63284,44.3902535 118.046734,43.3591179 118.875121,42.5145344 C119.702909,41.6705508 120.702853,41.2482591 121.874352,41.2482591 C122.579772,41.2482591 123.207211,41.4024196 123.758469,41.7101407 C124.309728,42.0172619 124.744616,42.4653471 125.063135,43.0531963 C125.381053,43.6416455 125.540013,44.279282 125.540013,44.9679054 C125.540013,45.1844499 125.516619,45.4369852 125.47103,45.726111 L119.461171,45.726111 C119.479766,46.2485771 119.651922,46.6654702 119.977639,46.9755907 C120.302755,47.2851113 120.75204,47.4404715 121.324293,47.4404715 C122.017116,47.4404715 122.630758,47.2089308 123.166421,46.7458496 L123.166421,46.7458496 Z M123.641499,44.3800561 C123.502935,43.9235732 123.271994,43.5786616 122.948077,43.3441217 C122.62476,43.1083822 122.23366,42.9914122 121.776577,42.9914122 C121.323694,42.9914122 120.914598,43.1119813 120.549292,43.3537193 C120.183386,43.5954573 119.907457,43.9379695 119.717305,44.3800561 L123.641499,44.3800561 L123.641499,44.3800561 Z" id="Fill-20" fill="#C5222A"></path>
                    <path d="M127.632276,41.4330117 L129.478003,41.4330117 L129.37183,42.204414 C130.079649,41.5673773 130.81506,41.2482591 131.578064,41.2482591 C132.230097,41.2482591 132.76396,41.4546062 133.180854,41.8667005 C133.597147,42.2775952 133.805293,42.7958623 133.805293,43.4221018 C133.805293,43.7166262 133.765704,44.1557137 133.687124,44.7399639 L133.111871,48.9568827 L131.266744,48.9568827 L131.8294,44.8401382 C131.883986,44.4178465 131.912179,44.1017275 131.912179,43.8911815 C131.912179,43.588859 131.825801,43.3555188 131.651246,43.1935603 C131.47729,43.0298023 131.230154,42.9488231 130.911035,42.9488231 C130.600315,42.9488231 130.289595,43.0555957 129.980074,43.2697408 C129.668754,43.4844858 129.430015,43.7808098 129.263258,44.1611123 C129.096501,44.5414148 128.94354,45.2528324 128.803776,46.2977645 L128.450466,48.9568827 L126.60474,48.9568827 L127.632276,41.4330117" id="Fill-21" fill="#C5222A"></path>
                    <path d="M51.6917467,4.4998811 C51.6917467,2.38722277 53.4037077,0.675261698 55.5163661,0.675261698 C57.6290244,0.675261698 59.3415853,2.38722277 59.3415853,4.4998811 C59.3415853,6.61193958 57.6290244,8.32450049 55.5163661,8.32450049 C53.4037077,8.32450049 51.6917467,6.61193958 51.6917467,4.4998811" id="Fill-22" fill="#C5222A"></path>
                </g>
            </g>
        </g>
    </g>
</svg>