<?xml version="1.0" encoding="UTF-8" standalone="no"?>
<svg width="120px" height="44px" viewBox="0 0 120 44" version="1.1" xmlns="http://www.w3.org/2000/svg" xmlns:xlink="http://www.w3.org/1999/xlink" xmlns:sketch="http://www.bohemiancoding.com/sketch/ns">
    <!-- Generator: Sketch 3.3.2 (12043) - http://www.bohemiancoding.com/sketch -->
    <title>logo-grey-mobile</title>
    <desc>Created with Sketch.</desc>
    <defs></defs>
    <g id="Home" stroke="none" stroke-width="1" fill="none" fill-rule="evenodd" sketch:type="MSPage">
        <g id="Startseite-Mobile" sketch:type="MSArtboardGroup" transform="translate(-128.000000, -3038.000000)" fill="#9B9DA0">
            <g id="Footer" sketch:type="MSLayerGroup" transform="translate(-8.000000, 2965.000000)">
                <g id="logo-grey-mobile" transform="translate(135.817162, 73.375000)" sketch:type="MSShapeGroup">
                    <path d="M0.447764349,40.7238794 L4.91438903,19.7911465 C5.8725246,15.9631119 7.77978035,13.0015565 10.6376588,10.9069809 C13.0172208,9.17201931 15.6056394,8.30453849 18.404417,8.30453849 C21.6509589,8.30453849 24.0831107,9.28521253 25.6988688,11.2460598 C27.0461687,12.8778453 27.7193178,14.9213336 27.7193178,17.375523 C27.7193178,17.8247899 27.7037913,18.1914157 27.6742409,18.4759013 C27.6441896,18.7458622 27.584087,19.1275137 27.4949348,19.6218575 C26.9409892,22.4802369 25.7439458,24.9649784 23.9038046,27.0755813 C21.4636392,29.8898854 18.3438135,31.296787 14.543326,31.296787 C13.4359356,31.296787 12.4412376,31.2046297 11.5582303,31.0208159 C10.6306469,30.8430124 9.59788391,30.4032618 8.46094312,29.7020648 L9.38101371,25.4588214 C10.8329923,26.2521757 11.5882816,26.6628768 11.6478833,26.6939298 C12.650595,27.187272 13.7354469,27.4336926 14.902439,27.4336926 C17.012541,27.4336926 18.8526822,26.7009418 20.4238642,25.2334367 C21.9504702,23.7669333 22.9601938,21.8957391 23.4540368,19.6193533 C23.5141394,19.3799446 23.5592164,19.0288452 23.5897685,18.5650535 C23.619319,18.1308123 23.6338438,17.8984156 23.6338438,17.8688651 C23.6338438,16.087324 23.0658742,14.6804223 21.9279317,13.6476594 C20.7754644,12.5993699 19.3700654,12.0754756 17.7087294,12.0754756 C15.8680874,12.0754756 14.1551633,12.7486247 12.5689556,14.094422 C10.6381597,15.7242041 9.38101371,17.9454959 8.79751766,20.7572958 L4.51069992,40.7238794 L0.447764349,40.7238794" id="Fill-3"></path>
                    <path d="M30.709422,8.76432336 L34.5900464,8.76432336 L34.0290888,11.3367145 C34.7623405,10.4537072 35.6142948,9.74950509 36.5869552,9.22611164 C37.7529456,8.61156259 39.0246163,8.30453849 40.4009658,8.30453849 L41.6571101,8.30453849 L40.8276943,12.1676329 L39.8620459,12.1676329 C37.7829969,12.1676329 36.0490369,13.0426266 34.6576618,14.7931147 C33.6855023,16.0197085 32.9823019,17.5077487 32.5485615,19.2587377 L30.0818507,30.8370022 L26.0209186,30.8370022 L30.709422,8.76432336" id="Fill-4"></path>
                    <path d="M38.7090777,30.8370022 L43.4216222,8.76432336 L47.4610176,8.76432336 L42.7710116,30.8370022 L38.7090777,30.8370022" id="Fill-5"></path>
                    <path d="M47.0743575,30.8370022 L50.3063747,15.6656041 C50.8007185,13.6757073 51.9151209,11.9702961 53.6510842,10.5493705 C55.5217776,9.05281582 57.6844693,8.30453849 60.1386587,8.30453849 C61.6206886,8.30453849 62.8472824,8.67116433 63.8199428,9.40491687 C64.4640423,9.89926073 65.0475384,10.5729107 65.5709318,11.4263676 C66.3642861,10.5438611 67.3444593,9.82463334 68.5114514,9.27068774 C69.8582504,8.62608738 71.3182427,8.30453849 72.8889239,8.30453849 C74.6849898,8.30453849 76.1815445,8.87250803 77.3785879,10.0104505 C78.5756313,11.1468905 79.174153,12.5537921 79.174153,14.2296529 C79.174153,14.7234959 79.129076,15.2018124 79.0399238,15.6656041 L75.8294434,30.8370022 L71.7665079,30.8370022 L74.7065266,16.902215 C74.8117061,16.4835003 74.8642959,16.0267205 74.8642959,15.5333784 C74.8642959,14.5757436 74.6474257,13.8059295 74.2136853,13.2219326 C73.689791,12.5192331 72.8743991,12.1676329 71.7665079,12.1676329 C70.2404027,12.1676329 68.9832568,12.6835135 67.9955707,13.7152748 C67.2322678,14.5532052 66.7158863,15.6155186 66.4464263,16.902215 L63.5059067,30.8370022 L59.3533181,30.8370022 L62.2487607,17.1711741 C62.3088633,16.9317655 62.3539403,16.6517875 62.3839916,16.3297378 C62.413542,16.0081889 62.4285677,15.7277101 62.4285677,15.4883014 C62.4285677,13.2740216 61.3587415,12.1676329 59.219089,12.1676329 C57.9614421,12.1676329 56.936192,12.488681 56.1438394,13.1317787 C55.1701774,13.97021 54.4524522,15.4131732 53.9886605,17.4626717 L51.1372931,30.8370022 L47.0743575,30.8370022" id="Fill-6"></path>
                    <path d="M82.5333873,8.76432336 L86.5963229,8.76432336 L83.7905333,22.0645273 C83.7309315,22.5433446 83.7003794,22.8959465 83.7003794,23.1203295 C83.7003794,24.4385798 84.1120822,25.4798573 84.9349869,26.2436612 C85.7283412,27.0375163 86.7240409,27.4336926 87.9215851,27.4336926 C89.4486919,27.4336926 90.8400671,26.8802479 92.0977139,25.7718558 C93.3248086,24.7085407 94.1402005,23.4729314 94.5448913,22.0645273 L97.3506809,8.76432336 L101.391579,8.76432336 L98.5862901,21.861681 C98.0318437,24.5723081 96.670019,26.8116307 94.4998144,28.5791479 C92.2845328,30.3907404 89.8148169,31.296787 87.0911676,31.296787 C84.9505134,31.296787 83.2070372,30.7508551 81.8597373,29.6574887 C80.3181057,28.399341 79.5472899,26.5566955 79.5472899,24.1300532 C79.5472899,23.2024698 79.6594814,22.2668727 79.8843653,21.322761 L82.5333873,8.76432336" id="Fill-7"></path>
                    <path d="M98.5382081,27.0665659 L109.62864,27.0665659 L109.942676,27.1562189 C110.690953,27.0961163 111.244398,26.9769129 111.603511,26.7971059 C112.306711,26.4525177 112.771505,25.9135977 112.995387,25.1798452 C113.025939,25.0606417 113.040464,24.9028724 113.040464,24.7095424 C113.040464,23.7954821 111.97815,22.9720765 109.852522,22.2388248 C108.236263,21.7149305 106.994143,21.3177525 106.126662,21.0487934 C104.345622,20.4051947 103.087975,19.7390576 102.354222,19.0508829 C101.472217,18.2269764 101.029962,17.1867006 101.029962,15.9285529 C101.029962,15.5699408 101.075039,15.1727628 101.165192,14.7390224 C101.568882,12.5683169 102.736374,10.9740955 104.66717,9.95585734 C106.133173,9.19205351 107.907702,8.80990116 109.987753,8.80990116 L119.504999,8.80990116 L118.674582,12.6729956 L108.371494,12.6729956 C106.589953,12.6729956 105.609779,13.3316199 105.429973,14.6493693 L105.429973,14.8286754 C105.429973,15.652081 106.073571,16.3257309 107.360768,16.8496252 C107.854611,17.0594835 109.186385,17.441135 111.35709,17.9950806 C113.451666,18.6391801 114.993297,19.4099959 115.980983,20.307528 C116.923593,21.2205866 117.394897,22.3054385 117.394897,23.5630853 C117.394897,24.0273779 117.32027,24.5362466 117.170514,25.0896913 C116.526915,27.3801011 115.269769,28.9893482 113.399076,29.9164307 C112.172482,30.5304789 110.623338,30.8370022 108.753145,30.8370022 L97.7528675,30.8370022 L98.5382081,27.0665659" id="Fill-8"></path>
                    <path d="M25.2420891,34.5954179 L25.9167408,34.5954179 C26.0249254,33.7775217 26.1451306,33.2185676 26.278358,32.9170529 C26.4110846,32.616039 26.5923941,32.3906543 26.8197823,32.2408987 C27.0471704,32.091143 27.3286509,32.0165156 27.6647246,32.0165156 C28.1004685,32.0165156 28.5041576,32.1407277 28.8742894,32.3906543 L28.7014944,33.6462977 C28.4901336,33.4584771 28.2762685,33.3648172 28.0604001,33.3648172 C27.8991248,33.3648172 27.780923,33.4234173 27.7062956,33.5401165 C27.6311673,33.6573165 27.5515314,34.0089167 27.4668869,34.5954179 L28.4250225,34.5954179 L28.2572361,35.9321998 L27.2935911,35.9321998 L26.6049155,40.8776419 L25.0652873,40.8776419 L25.7414415,35.9321998 L25.0743027,35.9321998 L25.2420891,34.5954179" id="Fill-9"></path>
                    <path d="M28.9974997,34.5954179 L30.3713449,34.5954179 L30.2616577,35.4473722 C30.6733605,34.7767274 31.1682052,34.4411546 31.7461918,34.4411546 C31.8844278,34.4411546 32.0291749,34.4787187 32.1794314,34.5523444 L31.6194755,35.9597469 C31.5017746,35.9181759 31.4156275,35.8966391 31.3600326,35.8966391 C31.0580171,35.8966391 30.7875554,36.0704358 30.5496493,36.4180292 C30.3117432,36.7651217 30.1239226,37.4663186 29.9866883,38.5221209 L29.680165,40.8776419 L28.140036,40.8776419 L28.9974997,34.5954179" id="Fill-10"></path>
                    <path d="M37.0026648,39.0314904 L38.3614844,39.7351917 C38.0569645,40.1338722 37.6542771,40.4499117 37.1514187,40.6828093 C36.6490612,40.9147051 36.0916096,41.0309035 35.479064,41.0309035 C34.5199267,41.0309035 33.7641365,40.7619444 33.2111926,40.224527 C32.6587496,39.6871096 32.3822776,38.9728904 32.3822776,38.0818694 C32.3822776,37.0646329 32.7278676,36.2036632 33.4195483,35.4984594 C34.1097265,34.7937565 34.9451526,34.4411546 35.9233223,34.4411546 C36.5123278,34.4411546 37.0367229,34.5698743 37.4970087,34.8268129 C37.9572944,35.0832507 38.3204142,35.4573893 38.5858674,35.9482272 C38.8513205,36.4395659 38.9845479,36.9719748 38.9845479,37.5469563 C38.9845479,37.7277649 38.9650146,37.9386249 38.9269496,38.180037 L33.9083828,38.180037 C33.9239093,38.6162817 34.0676546,38.9643759 34.3401197,39.2233179 C34.6115831,39.4817591 34.9862227,39.6114805 35.4645392,39.6114805 C36.0425258,39.6114805 36.5554013,39.4181505 37.0026648,39.0314904 L37.0026648,39.0314904 Z M37.3988411,37.0561184 C37.2831436,36.6749678 37.0908153,36.3869762 36.8203536,36.1911419 C36.5498919,35.9943059 36.2238353,35.8966391 35.8411821,35.8966391 C35.4640383,35.8966391 35.1219544,35.997311 34.8174345,36.1991555 C34.511913,36.4010001 34.2800172,36.6869883 34.1227487,37.0561184 L37.3988411,37.0561184 L37.3988411,37.0561184 Z" id="Fill-11"></path>
                    <path d="M40.7315301,34.5954179 L42.27216,34.5954179 L42.179001,35.2780832 C42.7379551,34.7206317 43.3640239,34.4411546 44.0587097,34.4411546 C44.3391885,34.4411546 44.6026382,34.4892367 44.8480572,34.5849 C45.0924744,34.6805633 45.2913138,34.8032727 45.4430729,34.9525275 C45.5953328,35.1017823 45.7255551,35.310138 45.8342406,35.5780954 C46.1227331,35.2069618 46.4623127,34.9244796 46.8514771,34.7311496 C47.2406414,34.5383204 47.6458331,34.4411546 48.0660504,34.4411546 C48.5939515,34.4411546 49.0321996,34.6174555 49.3787913,34.9685549 C49.7253829,35.3201551 49.8991796,35.7759331 49.8991796,36.3378924 C49.8991796,36.5482515 49.8801471,36.8117012 49.8415813,37.1262381 L49.3292066,40.8776419 L47.7890776,40.8776419 L48.22983,37.648129 C48.2874283,37.2148894 48.3164779,36.9284004 48.3164779,36.7866584 C48.3164779,36.4921557 48.2418505,36.2677727 48.0930965,36.1145111 C47.9443426,35.9617503 47.7339835,35.8846186 47.463021,35.8846186 C47.1990704,35.8846186 46.9326156,35.9777776 46.6636564,36.1645966 C46.3946973,36.3504137 46.1893468,36.5978361 46.047104,36.9068636 C45.9063637,37.2158911 45.7871602,37.7472983 45.6904952,38.5000833 L45.3654403,40.8776419 L43.8253113,40.8776419 L44.2921081,37.4578041 C44.330674,37.1808313 44.3502073,36.9444277 44.3502073,36.7485935 C44.3502073,36.4761283 44.2705714,36.259759 44.1112995,36.1004871 C43.9530293,35.9412152 43.7436719,35.8610784 43.4837282,35.8610784 C43.235805,35.8610784 42.9808698,35.9467246 42.7194235,36.118017 C42.4574764,36.2898103 42.2536284,36.5227079 42.1088813,36.8167097 C41.9631325,37.1112125 41.8499393,37.5624828 41.7688008,38.1705207 L41.4136946,40.8776419 L39.8735655,40.8776419 L40.7315301,34.5954179" id="Fill-12"></path>
                    <path d="M56.8250022,32.1702781 L58.3771518,32.1702781 L57.1756007,40.8776419 L55.6354716,40.8776419 L55.7281298,40.1979817 C55.392557,40.5090126 55.0790218,40.7248811 54.788025,40.8470897 C54.4965274,40.9692983 54.1694691,41.0309035 53.8068501,41.0309035 C52.9734274,41.0309035 52.3102954,40.7258828 51.8184559,40.1153406 C51.3266163,39.5052992 51.0801956,38.7940852 51.0801956,37.9842027 C51.0801956,37.3656468 51.2379649,36.7771422 51.5530027,36.218188 C51.8670388,35.6597347 52.2892595,35.2239909 52.819665,34.9114574 C53.3500704,34.598423 53.9045168,34.4411546 54.4835052,34.4411546 C54.8721687,34.4411546 55.23028,34.5308076 55.5588408,34.709112 C55.8874017,34.8869155 56.1578634,35.1458575 56.3717285,35.4869398 L56.8250022,32.1702781 L56.8250022,32.1702781 Z M54.1639597,39.6585609 C54.5426061,39.6585609 54.8736712,39.5744172 55.1566543,39.4056291 C55.4396373,39.2363401 55.6765417,38.9718887 55.8678683,38.6107723 C56.0596958,38.2501567 56.1553591,37.8815274 56.1553591,37.5048845 C56.1553591,37.0105406 56.0116137,36.6133626 55.7231213,36.3123488 C55.4346288,36.0118358 55.053979,35.8610784 54.5816728,35.8610784 C54.031734,35.8610784 53.5649372,36.062923 53.1817831,36.4651095 C52.7981282,36.8682978 52.6063007,37.3881853 52.6063007,38.0247719 C52.6063007,38.5156098 52.7520495,38.9102835 53.0425454,39.2102957 C53.3330413,39.5093061 53.7061783,39.6585609 54.1639597,39.6585609 L54.1639597,39.6585609 Z" id="Fill-13"></path>
                    <path d="M63.1127356,35.4784252 L62.3829899,36.6529302 C62.1941676,36.3739539 61.9968307,36.1681025 61.7899776,36.035376 C61.5826236,35.9031503 61.3897945,35.8375383 61.2094867,35.8375383 C61.0712507,35.8375383 60.9545515,35.8761041 60.8588882,35.9527349 C60.762724,36.0293657 60.7151428,36.1155128 60.7151428,36.2116769 C60.7151428,36.3038342 60.7532078,36.3959915 60.8293377,36.4881489 C60.9024626,36.5803062 61.1228388,36.7581097 61.4909672,37.0235628 C62.0764666,37.4457836 62.4631267,37.8079017 62.6489439,38.1094164 C62.8342602,38.4104303 62.9279201,38.7374886 62.9279201,39.0900905 C62.9279201,39.5548839 62.7360926,39.9946346 62.3524377,40.4093425 C61.9692837,40.8240504 61.4138355,41.0309035 60.6865941,41.0309035 C60.2663767,41.0309035 59.8847253,40.946259 59.540137,40.77697 C59.1960497,40.607681 58.811393,40.2976518 58.3876697,39.8468823 L59.3402959,38.7379894 C59.771532,39.3044564 60.2433374,39.5879403 60.7552112,39.5879403 C60.9590592,39.5879403 61.121837,39.5393574 61.243044,39.4416907 C61.3642509,39.3435231 61.4248543,39.2273247 61.4248543,39.0930956 C61.4248543,38.9859126 61.3787757,38.8762254 61.2861175,38.7625313 C61.194461,38.6498389 60.942531,38.4474935 60.5308282,38.1559959 C60.0545151,37.8189205 59.7259542,37.5289255 59.5456464,37.2875134 C59.291713,36.950438 59.1644958,36.5938293 59.1644958,36.218188 C59.1644958,35.6927912 59.3638361,35.2655619 59.7620158,34.9359993 C60.1601955,34.6059359 60.6309992,34.4411546 61.173926,34.4411546 C61.5540749,34.4411546 61.916193,34.5318093 62.2587778,34.7121171 C62.6008618,34.8929258 62.8858483,35.1483618 63.1127356,35.4784252" id="Fill-14"></path>
                    <path d="M65.255894,43.1725594 L63.715765,43.1725594 L64.8882665,34.5954179 L66.4158741,34.5954179 L66.3222143,35.2891021 C66.6527786,34.9690557 66.9623069,34.7481787 67.2492968,34.6259701 C67.5367876,34.5022589 67.8588373,34.4411546 68.2169486,34.4411546 C69.0428585,34.4411546 69.6959734,34.747177 70.1792984,35.3572183 C70.6626235,35.9677605 70.9040356,36.6764703 70.9040356,37.4833477 C70.9040356,38.1014027 70.7487705,38.6904082 70.4382405,39.2513658 C70.1277104,39.8123233 69.7104982,40.248568 69.1866039,40.5616024 C68.6632104,40.8746367 68.1177794,41.0309035 67.5498098,41.0309035 C67.1661549,41.0309035 66.8120504,40.9432539 66.485493,40.7659512 C66.1594364,40.5901511 65.8924807,40.3327117 65.6856276,39.9951354 L65.255894,43.1725594 L65.255894,43.1725594 Z M67.8473177,35.8139981 C67.4776867,35.8139981 67.1531327,35.8996443 66.8731547,36.0694341 C66.5931768,36.2407265 66.3592775,36.5061796 66.1704552,36.8667952 C65.9821337,37.2279117 65.887973,37.5960401 65.887973,37.9721822 C65.887973,38.4645226 66.029715,38.8611997 66.3131989,39.1617127 C66.5971836,39.461224 66.9713223,39.6114805 67.4361157,39.6114805 C67.9765383,39.6114805 68.4353214,39.4101368 68.8124652,39.0084511 C69.189609,38.6062646 69.3784313,38.0868779 69.3784313,37.4507921 C69.3784313,36.9614568 69.234686,36.5652805 68.9496995,36.2647675 C68.6642121,35.9637537 68.2960837,35.8139981 67.8473177,35.8139981 L67.8473177,35.8139981 Z" id="Fill-15"></path>
                    <path d="M72.3334757,34.5954179 L73.70682,34.5954179 L73.5971328,35.4473722 C74.0093364,34.7767274 74.5041812,34.4411546 75.081667,34.4411546 C75.2204038,34.4411546 75.3651509,34.4787187 75.5149065,34.5523444 L74.9549506,35.9597469 C74.8372497,35.9181759 74.7506018,35.8966391 74.6960086,35.8966391 C74.3929914,35.8966391 74.1225297,36.0704358 73.8851244,36.4180292 C73.6472183,36.7651217 73.4593977,37.4663186 73.3226643,38.5221209 L73.0156402,40.8776419 L71.4755111,40.8776419 L72.3334757,34.5954179" id="Fill-16"></path>
                    <path d="M81.0954327,34.5954179 L82.6480831,34.5954179 L81.7775971,40.8776419 L80.2374681,40.8776419 L80.3306271,40.1949765 C79.996056,40.5065083 79.6830216,40.7238794 79.3925257,40.8465889 C79.1020298,40.9692983 78.7754724,41.0309035 78.4138551,41.0309035 C77.581935,41.0309035 76.9208064,40.7258828 76.4304694,40.1153406 C75.9391307,39.5052992 75.6942126,38.7940852 75.6942126,37.9842027 C75.6942126,37.3656468 75.8509802,36.7771422 76.1650163,36.218188 C76.4790523,35.6597347 76.9007722,35.2239909 77.4301759,34.9114574 C77.9590788,34.598423 78.5130244,34.4411546 79.0905102,34.4411546 C79.4781719,34.4411546 79.8357824,34.5298059 80.1638424,34.7061069 C80.4914016,34.8829087 80.7618632,35.1403481 80.9752275,35.4779244 L81.0954327,34.5954179 L81.0954327,34.5954179 Z M78.776975,39.6585609 C79.156623,39.6585609 79.4871873,39.5744172 79.7706712,39.4056291 C80.0531534,39.236841 80.2905587,38.9718887 80.4818853,38.6112731 C80.6737128,38.2511584 80.7698769,37.8825291 80.7698769,37.506387 C80.7698769,37.0115423 80.6251298,36.6143643 80.3366374,36.3128496 C80.0481449,36.0118358 79.6674951,35.8610784 79.1951889,35.8610784 C78.6452501,35.8610784 78.1789541,36.062923 77.7958001,36.4651095 C77.4121452,36.8682978 77.2208186,37.3881853 77.2208186,38.0247719 C77.2208186,38.5156098 77.3655656,38.9102835 77.6560615,39.2102957 C77.9465574,39.5093061 78.3201952,39.6585609 78.776975,39.6585609 L78.776975,39.6585609 Z" id="Fill-17"></path>
                    <path d="M90.0316871,35.8996443 L88.7254574,36.6088549 C88.3558264,36.1420581 87.8589783,35.9086597 87.234913,35.9086597 C86.8151965,35.9086597 86.4435621,35.997311 86.1195089,36.1751145 C85.7959566,36.3534189 85.5375154,36.6103575 85.3451871,36.9474329 C85.152358,37.2845083 85.0561938,37.6406162 85.0561938,38.0152557 C85.0561938,38.497579 85.2089546,38.8837382 85.5129735,39.174735 C85.8174934,39.4657317 86.2352064,39.6114805 86.7666136,39.6114805 C87.5028704,39.6114805 88.0668331,39.364559 88.4595034,38.8712168 L89.6735758,39.7251746 C89.3304902,40.1338722 88.9047634,40.4534177 88.3938914,40.6843119 C87.8845219,40.9157069 87.3160515,41.0309035 86.6879793,41.0309035 C85.7108113,41.0309035 84.9399955,40.7619444 84.3760327,40.224527 C83.81207,39.6871096 83.5300887,38.9768972 83.5300887,38.0933891 C83.5300887,37.0836654 83.8786838,36.2221949 84.5748722,35.5099791 C85.2720623,34.7977633 86.1685927,34.4411546 87.265966,34.4411546 C88.5015752,34.4411546 89.4231483,34.9279856 90.0316871,35.8996443" id="Fill-18"></path>
                    <path d="M92.2104063,32.1702781 L93.7510362,32.1702781 L93.3318206,35.2395174 C93.9223286,34.7076094 94.5363768,34.4411546 95.1734643,34.4411546 C95.7183945,34.4411546 96.1646563,34.6134487 96.5117488,34.9575361 C96.859843,35.3006217 97.0331389,35.7333604 97.0331389,36.256253 C97.0331389,36.5021728 97.0005833,36.8687986 96.9349713,37.3566314 L96.4541505,40.8776419 L94.9140215,40.8776419 L95.3828217,37.4402742 C95.4294012,37.0876723 95.4524406,36.8237217 95.4524406,36.6479216 C95.4524406,36.3954907 95.3803174,36.2006581 95.2360712,36.0654273 C95.0908233,35.9286939 94.8854727,35.8610784 94.6190179,35.8610784 C94.3600758,35.8610784 94.1021355,35.9502306 93.8431935,36.1290358 C93.5852532,36.3073402 93.3859129,36.5547626 93.2476769,36.8718038 C93.1084393,37.188845 92.9812221,37.782859 92.8650237,38.6543466 L92.5615056,40.8776419 L91.0213766,40.8776419 L92.2104063,32.1702781" id="Fill-19"></path>
                    <path d="M102.840552,39.0314904 L104.199873,39.7351917 C103.895353,40.1338722 103.492165,40.4499117 102.989807,40.6828093 C102.48745,40.9147051 101.928996,41.0309035 101.316951,41.0309035 C100.357814,41.0309035 99.602024,40.7619444 99.049581,40.224527 C98.497138,39.6871096 98.2201652,38.9728904 98.2201652,38.0818694 C98.2201652,37.0646329 98.5657551,36.2036632 99.2574358,35.4984594 C99.9486157,34.7937565 100.783541,34.4411546 101.761711,34.4411546 C102.350716,34.4411546 102.87461,34.5698743 103.334896,34.8268129 C103.795182,35.0832507 104.158302,35.4573893 104.424256,35.9482272 C104.689709,36.4395659 104.822435,36.9719748 104.822435,37.5469563 C104.822435,37.7277649 104.802902,37.9386249 104.764837,38.180037 L99.7467711,38.180037 C99.7622976,38.6162817 99.906043,38.9643759 100.178007,39.2233179 C100.449471,39.4817591 100.824611,39.6114805 101.302427,39.6114805 C101.880914,39.6114805 102.393289,39.4181505 102.840552,39.0314904 L102.840552,39.0314904 Z M103.237229,37.0561184 C103.121532,36.6749678 102.928703,36.3869762 102.658241,36.1911419 C102.38828,35.9943059 102.061723,35.8966391 101.680071,35.8966391 C101.301926,35.8966391 100.960343,35.997311 100.655322,36.1991555 C100.349801,36.4010001 100.119407,36.6869883 99.9606362,37.0561184 L103.237229,37.0561184 L103.237229,37.0561184 Z" id="Fill-20"></path>
                    <path d="M106.569418,34.5954179 L108.110548,34.5954179 L108.021897,35.2395174 C108.612906,34.7076094 109.226954,34.4411546 109.864042,34.4411546 C110.408471,34.4411546 110.854232,34.6134487 111.202326,34.9575361 C111.549919,35.3006217 111.723716,35.7333604 111.723716,36.256253 C111.723716,36.5021728 111.69066,36.8687986 111.625048,37.3566314 L111.144728,40.8776419 L109.604098,40.8776419 L110.0739,37.4402742 C110.119478,37.0876723 110.143018,36.8237217 110.143018,36.6479216 C110.143018,36.3954907 110.070895,36.2006581 109.925146,36.0654273 C109.779898,35.9286939 109.573546,35.8610784 109.307091,35.8610784 C109.047648,35.8610784 108.788205,35.9502306 108.529764,36.1290358 C108.26982,36.3083419 108.07048,36.5557643 107.931242,36.8733063 C107.792005,37.1908484 107.664287,37.7848624 107.547587,38.6573518 L107.252584,40.8776419 L105.711453,40.8776419 L106.569418,34.5954179" id="Fill-21"></path>
                    <path d="M43.1611776,3.75727616 C43.1611776,1.99326493 44.5906177,0.563824826 46.3546289,0.563824826 C48.1186401,0.563824826 49.5485811,1.99326493 49.5485811,3.75727616 C49.5485811,5.52078653 48.1186401,6.95072749 46.3546289,6.95072749 C44.5906177,6.95072749 43.1611776,5.52078653 43.1611776,3.75727616" id="Fill-22"></path>
                </g>
            </g>
        </g>
    </g>
</svg>