<?xml version="1.0" encoding="UTF-8" standalone="no"?>
<svg width="72px" height="106px" viewBox="0 0 72 106" version="1.1" xmlns="http://www.w3.org/2000/svg" xmlns:xlink="http://www.w3.org/1999/xlink" xmlns:sketch="http://www.bohemiancoding.com/sketch/ns">
    <!-- Generator: Sketch 3.3.3 (12081) - http://www.bohemiancoding.com/sketch -->
    <title>Fill 23 + Fill 34 + Stroke 35</title>
    <desc>Created with Sketch.</desc>
    <defs></defs>
    <g id="Home" stroke="none" stroke-width="1" fill="none" fill-rule="evenodd" sketch:type="MSPage">
        <g id="KONTAKT" sketch:type="MSArtboardGroup" transform="translate(-536.000000, -197.000000)">
            <g id="header" sketch:type="MSLayerGroup" transform="translate(-9.000000, -2.000000)">
                <g id="Container-1" transform="translate(8.000000, 0.000000)" sketch:type="MSShapeGroup">
                    <g id="Fill-23-+-Fill-34-+-Stroke-35" transform="translate(538.259910, 200.000000)">
                        <path d="M34.7510806,46.3973967 C41.3906891,46.3973967 46.7926512,41.0046023 46.7926512,34.379854 C46.7926512,27.7694864 41.3906891,22.3814856 34.7510806,22.3814856 C28.1041919,22.3814856 22.6973762,27.7694864 22.6973762,34.379854 C22.6973762,41.0046023 28.1041919,46.3973967 34.7510806,46.3973967 M34.7510806,0.0744912305 C15.7374358,0.0744912305 0.325099061,15.4427568 0.325099061,34.379854 C0.325099061,40.6378922 2.01412226,46.4908718 4.94807205,51.5409241 L34.7462271,102.992976 L64.5468089,51.5409241 C67.4831855,46.4908718 69.1697819,40.6378922 69.1697819,34.379854 C69.1697819,15.4427568 53.7550184,0.0744912305 34.7510806,0.0744912305" id="Fill-34" fill="#C4232A"></path>
                        <path d="M34.7510806,46.3973967 C41.3906891,46.3973967 46.7926512,41.0046023 46.7926512,34.379854 C46.7926512,27.7694864 41.3906891,22.3814856 34.7510806,22.3814856 C28.1041919,22.3814856 22.6973762,27.7694864 22.6973762,34.379854 C22.6973762,41.0046023 28.1041919,46.3973967 34.7510806,46.3973967 M34.7510806,0.0744912305 C15.7374358,0.0744912305 0.325099061,15.4427568 0.325099061,34.379854 C0.325099061,40.6378922 2.01412226,46.4908718 4.94807205,51.5409241 L34.7462271,102.992976 L64.5468089,51.5409241 C67.4831855,46.4908718 69.1697819,40.6378922 69.1697819,34.379854 C69.1697819,15.4427568 53.7550184,0.0744912305 34.7510806,0.0744912305" id="Stroke-35" stroke="#FFFFFF" stroke-width="1.3"></path>
                    </g>
                </g>
            </g>
        </g>
    </g>
</svg>