<?xml version="1.0" encoding="UTF-8" standalone="no"?>
<svg width="28px" height="45px" viewBox="0 0 28 45" version="1.1" xmlns="http://www.w3.org/2000/svg" xmlns:xlink="http://www.w3.org/1999/xlink" xmlns:sketch="http://www.bohemiancoding.com/sketch/ns">
    <!-- Generator: Sketch 3.3.2 (12043) - http://www.bohemiancoding.com/sketch -->
    <title>scroll-down-icon</title>
    <desc>Created with Sketch.</desc>
    <defs></defs>
    <g id="Home" stroke="none" stroke-width="1" fill="none" fill-rule="evenodd" sketch:type="MSPage">
        <g id="Startseite-Desktop" sketch:type="MSArtboardGroup" transform="translate(-1192.000000, -695.000000)" stroke="#FFFFFF" stroke-width="2" fill="#5B5B58">
            <g id="header" sketch:type="MSLayerGroup" transform="translate(0.000000, 38.000000)">
                <path d="M1227.09,667.102006 C1226.858,666.967006 1226.572,666.966006 1226.34,667.099006 L1206.986,678.157006 L1206.986,667.750006 C1206.986,667.484006 1206.844,667.236006 1206.613,667.102006 C1206.381,666.967006 1206.096,666.966006 1205.863,667.099006 L1185.378,678.801006 C1185.145,678.935006 1185,679.184006 1185,679.452006 C1185,679.722006 1185.145,679.970006 1185.378,680.104006 L1205.863,691.808006 C1205.979,691.873006 1206.108,691.907006 1206.237,691.907006 C1206.365,691.907006 1206.496,691.872006 1206.613,691.805006 C1206.844,691.671006 1206.986,691.424006 1206.986,691.157006 L1206.986,680.748006 L1226.34,691.808006 C1226.456,691.873006 1226.584,691.907006 1226.713,691.907006 C1226.842,691.907006 1226.973,691.872006 1227.088,691.805006 C1227.319,691.671006 1227.463,691.424006 1227.463,691.157006 L1227.463,667.750006 C1227.463,667.483006 1227.319,667.236006 1227.09,667.102006 L1227.09,667.102006 Z M1205.486,679.431006 C1205.486,679.439006 1205.481,679.445006 1205.481,679.452006 C1205.481,679.460006 1205.486,679.467006 1205.486,679.474006 L1205.486,689.865006 L1187.261,679.452006 L1205.486,669.042006 L1205.486,679.431006 L1205.486,679.431006 Z M1225.963,689.864006 L1207.742,679.452006 L1225.963,669.043006 L1225.963,689.864006 L1225.963,689.864006 Z" id="scroll-down-icon" sketch:type="MSShapeGroup" transform="translate(1206.231500, 679.453503) rotate(-90.000000) translate(-1206.231500, -679.453503) "></path>
            </g>
        </g>
    </g>
</svg>