<?xml version="1.0" encoding="UTF-8" standalone="no"?>
<svg width="19px" height="21px" viewBox="0 0 19 21" version="1.1" xmlns="http://www.w3.org/2000/svg" xmlns:xlink="http://www.w3.org/1999/xlink" xmlns:sketch="http://www.bohemiancoding.com/sketch/ns">
    <!-- Generator: Sketch 3.3.2 (12043) - http://www.bohemiancoding.com/sketch -->
    <title>telephone icon</title>
    <desc>Created with Sketch.</desc>
    <defs></defs>
    <g id="Home" stroke="none" stroke-width="1" fill="none" fill-rule="evenodd" sketch:type="MSPage">
        <g id="Startseite-Desktop" sketch:type="MSArtboardGroup" transform="translate(-1029.000000, -8.000000)" stroke="#7A7A7A">
            <path d="M1033.74012,9.70302043 C1033.40724,9.70302043 1032.5883,9.84296207 1032.11382,10.1824655 L1031.96063,10.2892848 C1031.41577,10.6660508 1030.59185,11.235754 1030.59185,12.4422331 C1030.59185,14.2871442 1032.03433,17.1224115 1035.00125,21.1136464 C1038.24227,25.4708826 1041.947,27.2810153 1043.20978,27.2810153 C1044.28377,27.2810153 1045.51592,25.7805759 1045.93657,24.9765325 C1046.19493,24.4838386 1045.98377,24.2056114 1045.91008,24.1294302 C1045.67325,23.9712713 1043.8242,22.7341541 1042.97379,22.1586544 C1042.74193,22.0029797 1042.52001,21.9226582 1042.31548,21.9226582 C1042.12834,21.9226582 1042.00579,21.9897308 1041.96439,22.0162286 C1041.89566,22.0899257 1041.70686,22.282863 1041.3715,22.5652304 C1040.74466,23.0935308 1039.79074,23.0297704 1039.11421,22.3979629 C1038.50476,21.8299158 1035.43101,18.0018081 1034.55327,16.8201707 C1034.25021,16.4111105 1034.13097,15.9945978 1034.19887,15.5822254 C1034.32142,14.8344899 1035.01947,14.3517327 1035.39458,14.0908947 L1035.48732,14.0263062 C1035.82269,13.7869978 1035.75147,13.3539239 1035.69599,13.2073578 C1035.59249,12.934099 1034.39512,10.3571855 1034.24358,10.0532886 C1034.11937,9.80652756 1034.02083,9.70302043 1033.74012,9.70302043 M1043.20978,27.9840357 C1041.60666,27.9840357 1037.70983,25.9337665 1034.43735,21.5326433 C1031.37602,17.4171998 1029.88883,14.443647 1029.88883,12.4422331 C1029.88883,10.8672686 1030.97607,10.1153928 1031.56068,9.71047294 L1031.70476,9.61027804 C1032.35064,9.14905027 1033.35508,9 1033.74012,9 C1034.41499,9 1034.69984,9.39415515 1034.87208,9.73862688 C1035.01781,10.030103 1036.23092,12.6343424 1036.35347,12.9581127 C1036.54227,13.4557749 1036.48016,14.1811529 1035.89721,14.5984937 L1035.79453,14.6697066 C1035.50554,14.8700964 1034.9673,15.2435501 1034.89278,15.6964973 C1034.85634,15.9167605 1034.93004,16.1469603 1035.11801,16.4003458 C1036.0562,17.6656169 1039.05376,21.3794528 1039.59366,21.8829114 C1040.01762,22.2795508 1040.55338,22.3350306 1040.91855,22.0269934 C1041.29697,21.7090195 1041.46507,21.5210505 1041.46672,21.5185663 L1041.50481,21.4813038 C1041.53711,21.4548059 1041.83272,21.2204658 1042.31548,21.2204658 C1042.66327,21.2204658 1043.01767,21.3405341 1043.36711,21.5765303 C1044.27632,22.1909487 1046.32659,23.5630392 1046.32659,23.5630392 L1046.35971,23.5878809 C1046.62221,23.8122843 1047.00146,24.4598249 1046.55927,25.301959 C1046.10136,26.1780433 1044.67958,27.9840357 1043.20978,27.9840357" id="telephone-icon" sketch:type="MSShapeGroup"></path>
        </g>
    </g>
</svg>