<?xml version="1.0" encoding="UTF-8" standalone="no"?>
<svg width="70px" height="70px" viewBox="0 0 70 70" version="1.1" xmlns="http://www.w3.org/2000/svg" xmlns:xlink="http://www.w3.org/1999/xlink" xmlns:sketch="http://www.bohemiancoding.com/sketch/ns">
    <!-- Generator: Sketch 3.3.2 (12043) - http://www.bohemiancoding.com/sketch -->
    <title>telephone btn </title>
    <desc>Created with Sketch.</desc>
    <defs></defs>
    <g id="Home" stroke="none" stroke-width="1" fill="none" fill-rule="evenodd" sketch:type="MSPage">
        <g id="Startseite-Desktop" sketch:type="MSArtboardGroup" transform="translate(-61.000000, -3766.000000)" stroke="#FFFFFF">
            <g id="Container-5-Copy-2" sketch:type="MSLayerGroup" transform="translate(-1.000000, 3484.000000)">
                <g id="telephone-btn-" transform="translate(63.000000, 283.000000)" sketch:type="MSShapeGroup">
                    <circle id="Oval-73" stroke-width="2" cx="34" cy="34" r="34"></circle>
                    <path d="M25.1115655,14.6235536 C24.4104583,14.6235536 22.6855952,14.9182976 21.686256,15.6333571 L21.3636071,15.8583393 C20.2160238,16.651881 18.4806964,17.8517857 18.4806964,20.3928631 C18.4806964,24.2786012 21.5188274,30.2502202 27.76775,38.6565298 C34.5939524,47.8337083 42.3968214,51.6461964 45.056494,51.6461964 C47.3185238,51.6461964 49.9136667,48.4859821 50.7996429,46.7925119 C51.3437857,45.7548036 50.8990536,45.1688036 50.7438333,45.0083512 C50.2450357,44.6752381 46.3505774,42.069631 44.5594405,40.8575179 C44.0711071,40.5296369 43.6037024,40.3604643 43.1729226,40.3604643 C42.7787679,40.3604643 42.5206488,40.5017321 42.4334464,40.5575417 C42.2886905,40.7127619 41.8910476,41.119125 41.1847083,41.7138452 C39.8644643,42.8265476 37.8553214,42.692256 36.4304345,41.3615476 C35.1468155,40.165131 28.6729107,32.1023988 26.8242202,29.6136429 C26.1858988,28.7520833 25.934756,27.8748274 26.0777679,27.0062917 C26.3358869,25.4314167 27.806119,24.4146369 28.5961726,23.8652619 L28.791506,23.7292262 C29.4978452,23.2251964 29.3478571,22.3130595 29.231006,22.0043631 C29.013,21.4288274 26.4911071,16.0013512 26.1719464,15.3612857 C25.9103393,14.8415595 25.7027976,14.6235536 25.1115655,14.6235536 M45.056494,53.1268929 C41.6800179,53.1268929 33.4725298,48.808631 26.5800536,39.5390179 C20.1323095,30.8711012 17,24.6082262 17,20.3928631 C17,17.0756845 19.2899345,15.4920893 20.5212321,14.63925 L20.8246964,14.4282202 C22.1850536,13.4567857 24.3005833,13.1428571 25.1115655,13.1428571 C26.5329643,13.1428571 27.1329167,13.9730238 27.4956786,14.6985476 C27.802631,15.3124524 30.3576607,20.7974821 30.6157798,21.4794048 C31.0134226,22.5275774 30.882619,24.0553631 29.6548095,24.9343631 L29.4385476,25.0843512 C28.829875,25.5064107 27.696244,26.2929762 27.5392798,27.2469702 C27.4625417,27.7108869 27.6177619,28.1957321 28.0136607,28.7294107 C29.9896667,31.3943155 36.303119,39.216369 37.4402381,40.27675 C38.3331905,41.1121488 39.4615893,41.229 40.2307143,40.5802143 C41.027744,39.9105 41.3817857,39.5146012 41.3852738,39.509369 L41.4655,39.4308869 C41.5335179,39.3750774 42.1561429,38.8815119 43.1729226,38.8815119 C43.9054226,38.8815119 44.651875,39.1343988 45.3878631,39.6314524 C47.3028274,40.9255357 51.6210893,43.8154226 51.6210893,43.8154226 L51.6908512,43.867744 C52.2437143,44.340381 53.0424881,45.7042262 52.1111667,47.4779226 C51.1467083,49.323125 48.1521786,53.1268929 45.056494,53.1268929" id="Imported-Layers" fill="#FFFFFF"></path>
                </g>
            </g>
        </g>
    </g>
</svg>