<?xml version="1.0" encoding="UTF-8" standalone="no"?>
<svg width="110px" height="110px" viewBox="0 0 110 110" version="1.1" xmlns="http://www.w3.org/2000/svg" xmlns:xlink="http://www.w3.org/1999/xlink" xmlns:sketch="http://www.bohemiancoding.com/sketch/ns">
    <!-- Generator: Sketch 3.3.3 (12081) - http://www.bohemiancoding.com/sketch -->
    <title>Fill 83</title>
    <desc>Created with Sketch.</desc>
    <defs></defs>
    <g id="Home" stroke="none" stroke-width="1" fill="none" fill-rule="evenodd" sketch:type="MSPage">
        <path d="M31.4033699,44.5225846 L9.88788038,44.5324621 C9.88788038,44.5324621 9.58414973,44.5003604 9.08534003,44.5003604 C7.48519804,44.5003604 4.47011567,44.8436008 2.28967526,47.1573864 C0.605575198,48.9476687 -0.159924831,51.4688801 0.0277461438,54.6494092 C0.553718744,63.6082289 3.02801239,98.6977625 3.04529787,98.9224738 C3.04529787,102.752443 5.35908344,110 14.1178854,110 L32.1836861,109.997531 C32.218257,110 32.2997457,110 32.329378,110 C34.2530055,110 37.512554,108.713466 37.512554,103.885877 L37.512554,52.4269898 C37.6829395,51.5454301 38.0558121,48.7427122 36.4112217,46.6486992 C35.6457217,45.6782428 34.15917,44.5225846 31.4033699,44.5225846 L31.4033699,44.5225846 Z M33.8603781,51.7948349 C33.8258071,51.9355881 33.8085216,52.0837494 33.8085216,52.2294414 L33.8085216,103.885877 C33.8085216,105.97989 32.8800441,106.295968 32.329378,106.295968 L32.329378,108.147984 L32.2799909,106.295968 L14.1178854,106.295968 C7.02095931,106.295968 6.75673833,99.668219 6.74686091,98.791598 C6.72216736,98.4384802 4.25281243,63.3711708 3.72930919,54.432106 C3.60337208,52.3084607 4.02810113,50.7157268 4.98621085,49.6983526 C6.25545928,48.3476154 8.27539161,48.2043928 9.08534003,48.2043928 C9.3174594,48.2043928 9.46809005,48.2167396 9.69033199,48.226617 L31.4033699,48.226617 C32.4207441,48.226617 33.1195716,48.4636751 33.4949135,48.9328525 C34.1418845,49.7477397 33.971499,51.3157801 33.8603781,51.7948349 L33.8603781,51.7948349 Z M104.985208,55.9482899 C104.730865,55.8346996 104.471582,55.733456 104.214769,55.6346818 C106.101357,54.4518608 107.975597,52.4763769 107.975597,49.0711364 C107.975597,46.7450041 107.269361,44.9003959 105.874176,43.5916378 C103.728306,41.5593587 100.723102,41.4037894 99.8538886,41.4037894 L83.4326783,41.4037894 C83.1635186,41.4037894 82.5782815,41.1099361 82.4967928,41.0803039 C81.9708202,38.1837505 81.3682976,34.9019778 84.1981783,29.281726 C85.5983026,26.498763 85.5390381,20.8612257 84.0574251,15.2631981 C82.6696476,9.96643173 80.1731298,5.26231059 77.0123555,2.01757821 C76.9506216,1.95090563 76.8814797,1.89411046 76.8148071,1.8373153 C76.1135103,1.29899593 73.5898295,-0.417205752 70.6833988,0.093950719 C68.7844649,0.427313635 67.1917309,1.59284916 65.939768,3.55598633 C65.752097,3.85477828 65.6508534,4.19801861 65.6508534,4.55113637 L65.6310986,17.7992256 C65.4557744,19.4981418 64.8285583,22.9527693 63.5667179,25.1480259 C62.6160162,26.8099017 58.126729,34.0994375 53.9312949,40.5419845 C49.9926738,46.5894347 48.5283463,48.456267 47.997435,49.0390348 C46.2762947,50.9527849 42.7451171,51.1478639 40.7918573,51.0737833 C39.8238702,51.0688446 38.9126782,51.844222 38.8805766,52.866535 C38.848475,53.8888479 39.6534847,54.7432447 40.6757977,54.7778157 C43.8390413,54.8716512 48.1628818,54.3901269 50.7482964,51.5232059 C51.8076497,50.3576703 53.9214175,47.342588 57.0352741,42.5619168 C60.986242,36.4897731 65.6730776,28.9261389 66.7842874,26.9901646 C68.6733439,23.6960452 69.22401,19.068474 69.2733971,18.4165643 C69.3450084,18.1202417 69.3548858,17.8535514 69.3548858,17.6510643 L69.3548858,5.12402671 C69.9524697,4.32148636 70.6019101,3.86959441 71.3229617,3.74118795 C72.6588827,3.50906859 74.0565376,4.41532185 74.4590425,4.70176702 C77.1308845,7.49460745 79.2619378,11.5715124 80.4768604,16.2064916 C81.8498218,21.4094225 81.7164766,25.970321 80.8917121,27.6173808 C77.5037571,34.346373 78.2865426,38.6232957 78.8544943,41.7470297 C79.2520604,43.9101846 81.8152508,45.1078218 83.4326783,45.1078218 L99.8538886,45.1078218 C100.683592,45.1078218 102.350406,45.3547573 103.335679,46.2881734 C103.965365,46.8783492 104.271565,47.7895412 104.271565,49.0711364 C104.271565,51.7059381 102.310897,52.6689866 99.9452547,53.5752398 L99.4834854,53.7579721 C98.9772676,53.9604592 97.4289821,54.5777979 97.5351643,56.1359609 C97.6462853,57.7040013 99.1007353,58.0620577 100.505798,58.4052981 C101.387358,58.6226013 102.483752,58.891761 103.476432,59.3313062 C104.760497,59.9066659 106.461882,62.5982627 106.187784,65.1367596 C105.839605,68.2753097 102.631913,69.5741904 99.9971112,70.1149792 C98.340174,70.4606888 97.7327127,71.5397969 97.7104885,72.4312341 C97.6981417,73.1424083 97.999403,74.4190648 100.226761,74.9870164 C100.644082,75.1080148 101.947902,76.4315891 102.024452,78.177423 C102.125695,80.5480037 99.7921547,81.9604748 97.7993853,82.7333828 C97.6783869,82.7827699 97.5672659,82.8173409 97.4610837,82.8494425 C96.8634998,83.0420522 95.6140062,83.4420877 95.2633578,85.0768007 C94.8781384,86.7732475 96.3671594,87.6152975 96.9301724,87.931375 C97.8240788,88.4375927 98.7525563,88.961096 98.7525563,91.4230429 C98.7525563,92.2280526 98.5352531,93.0133074 98.0981772,93.7590526 C97.6561627,94.5171446 96.5276675,95.3542559 95.9152675,95.8061479 C94.7991191,96.6383205 92.2877851,97.6803882 91.0308834,97.9446092 L90.7765399,97.998935 C82.6671783,99.6509335 72.5452924,101.705437 57.4007386,101.493072 C49.4592932,101.372074 45.0268011,99.063227 42.8982171,97.956956 C41.6511929,97.3075157 40.7498783,96.8432769 39.7102799,97.3766576 C38.8287202,97.8211415 38.5472137,98.8409851 38.9447799,99.744769 C39.3324686,100.611513 40.3967606,101.011548 41.2980751,100.717695 C40.865938,100.910304 40.4683719,100.865856 40.3152718,100.81153 C40.517759,100.883142 40.8017348,101.04118 41.1869541,101.241198 C43.5698816,102.480814 48.5308157,105.06129 57.3439435,105.197105 C58.1020354,105.206982 58.8403725,105.211921 59.5713016,105.211921 C73.9157844,105.211921 83.6376348,103.233967 91.5173463,101.626417 L91.7840367,101.572092 C93.4928303,101.209096 96.5227288,99.9719496 98.1228708,98.7792512 C99.2612434,97.9396705 100.535431,96.9321737 101.300931,95.6234156 C102.0689,94.3047801 102.459058,92.8898397 102.459058,91.4230429 C102.459058,88.3363492 101.34291,86.679412 100.239108,85.7163636 C105.251898,83.3630684 105.839605,79.8491763 105.716137,77.8860391 C105.602547,76.0537778 104.745681,74.2067003 103.555452,72.9374518 C108.479345,71.053334 109.639942,67.6135226 109.867123,65.5417338 C110.331362,61.3166675 107.721253,57.1706206 104.985208,55.9482899 L104.985208,55.9482899 Z" id="Fill-83" fill="#ED9F2D" sketch:type="MSShapeGroup"></path>
    </g>
</svg>