<?xml version="1.0" encoding="UTF-8" standalone="no"?>
<svg width="50px" height="50px" viewBox="0 0 50 50" version="1.1" xmlns="http://www.w3.org/2000/svg" xmlns:xlink="http://www.w3.org/1999/xlink" xmlns:sketch="http://www.bohemiancoding.com/sketch/ns">
    <!-- Generator: Sketch 3.3.3 (12081) - http://www.bohemiancoding.com/sketch -->
    <title>Twitter Copy + Imported Layers</title>
    <desc>Created with Sketch.</desc>
    <defs></defs>
    <g id="Home" stroke="none" stroke-width="1" fill="none" fill-rule="evenodd" sketch:type="MSPage">
        <g id="DEUTSCH-LERNEN" sketch:type="MSArtboardGroup" transform="translate(-1123.000000, -3906.000000)" fill="#FFFFFF">
            <g id="footer" sketch:type="MSLayerGroup" transform="translate(-1.000000, 3800.000000)">
                <g id="Container-5-Copy-2" transform="translate(126.000000, 49.000000)" sketch:type="MSShapeGroup">
                    <g id="social-btns" transform="translate(857.000000, 57.000000)">
                        <g id="Twitter-Copy-+-Imported-Layers" transform="translate(141.000000, 0.000000)">
                            <path d="M25,50 C38.8071187,50 50,38.8071187 50,25 C50,11.1928813 38.8071187,0 25,0 C11.1928813,0 0,11.1928813 0,25 C0,38.8071187 11.1928813,50 25,50 Z M33.6029412,15 L17.2401176,15 C16.0029412,15 15,16.0029412 15,17.2401176 L15,33.6042353 C15,34.8414118 16.0029412,35.8443529 17.2401176,35.8443529 L33.6029412,35.8443529 C34.8414118,35.8443529 35.8456471,34.8414118 35.8456471,33.6042353 L35.8456471,17.2401176 C35.8456471,16.0029412 34.8414118,15 33.6029412,15 Z M21.6375294,23.4182353 C21.7255294,23.25 21.8238824,23.0869412 21.9325882,22.9329412 C21.9364706,22.9290588 21.9377647,22.9251765 21.9416471,22.9212941 C22.0205882,22.8112941 22.1034118,22.7038824 22.1927059,22.6003529 C22.1978824,22.5938824 22.2043529,22.5874118 22.2095294,22.5809412 C22.2949412,22.4825882 22.3842353,22.3894118 22.4787059,22.2988235 C22.4877647,22.2897647 22.4981176,22.2807059 22.5084706,22.2716471 C22.5369412,22.2444706 22.5667059,22.2172941 22.5964706,22.1914118 C22.6068235,22.1810588 22.6184706,22.1707059 22.6288235,22.1629412 C22.6818824,22.1163529 22.7349412,22.0723529 22.7892941,22.0309412 C22.8035294,22.018 22.8177647,22.0076471 22.8332941,21.996 C22.8617647,21.974 22.8889412,21.9532941 22.9187059,21.9325882 C22.9381176,21.9183529 22.9575294,21.9041176 22.9769412,21.8911765 C23.0118824,21.8665882 23.0481176,21.842 23.0830588,21.8174118 C23.1167059,21.7954118 23.1503529,21.7747059 23.1852941,21.754 C23.2098824,21.7371765 23.2357647,21.7229412 23.2616471,21.7074118 C23.2888235,21.6918824 23.3147059,21.6763529 23.3418824,21.6621176 C23.3664706,21.6478824 23.3910588,21.6336471 23.4169412,21.6207059 C23.4622353,21.5961176 23.5101176,21.5715294 23.558,21.5482353 C23.5787059,21.5378824 23.5981176,21.5275294 23.6201176,21.5197647 C23.6550588,21.5029412 23.69,21.4861176 23.7262353,21.4718824 C23.7482353,21.4615294 23.7702353,21.4524706 23.7922353,21.4421176 C23.8362353,21.424 23.8802353,21.4071765 23.9242353,21.3916471 C23.9423529,21.3838824 23.9604706,21.3774118 23.9785882,21.3709412 C24.0277647,21.3528235 24.0769412,21.336 24.1274118,21.3204706 C24.1468235,21.314 24.1675294,21.3088235 24.1869412,21.3023529 C24.2322353,21.2881176 24.2775294,21.2751765 24.3215294,21.2635294 C24.3370588,21.2596471 24.3512941,21.2557647 24.3681176,21.2518824 C24.4263529,21.2363529 24.4845882,21.2234118 24.5454118,21.2104706 C24.5622353,21.2065882 24.5790588,21.2027059 24.5958824,21.2001176 C24.6437647,21.1910588 24.6916471,21.182 24.7408235,21.1742353 C24.7563529,21.1716471 24.7731765,21.1690588 24.79,21.1664706 C24.8521176,21.1574118 24.9142353,21.1483529 24.9776471,21.1431765 C24.9892941,21.1418824 24.9996471,21.1405882 25.0112941,21.1392941 C25.0656471,21.1341176 25.12,21.1302353 25.1730588,21.1276471 C25.1911765,21.1263529 25.2092941,21.1250588 25.2274118,21.1237647 C25.2908235,21.1211765 25.3568235,21.1198824 25.4228235,21.1198824 C25.4875294,21.1198824 25.5522353,21.1211765 25.6182353,21.1237647 C25.6363529,21.1250588 25.6531765,21.1263529 25.67,21.1276471 C25.7243529,21.1302353 25.7787059,21.1341176 25.8317647,21.1392941 C25.8434118,21.1405882 25.8550588,21.1418824 25.8667059,21.1431765 C25.9301176,21.1483529 25.9922353,21.1574118 26.0530588,21.1664706 C26.0711765,21.1690588 26.088,21.1716471 26.1035294,21.1742353 C26.1527059,21.182 26.2005882,21.1910588 26.2484706,21.2001176 C26.2652941,21.2027059 26.2821176,21.2065882 26.3002353,21.2104706 C26.3584706,21.2234118 26.418,21.2363529 26.4775294,21.2518824 C26.4917647,21.2557647 26.506,21.2596471 26.5215294,21.2635294 C26.5681176,21.2751765 26.6121176,21.2881176 26.6561176,21.3023529 C26.6768235,21.3088235 26.6975294,21.314 26.7169412,21.3204706 C26.7674118,21.336 26.8165882,21.3528235 26.8657647,21.3709412 C26.8825882,21.3774118 26.902,21.3838824 26.9201176,21.3916471 C26.9628235,21.4071765 27.0081176,21.424 27.0508235,21.4421176 C27.0728235,21.4524706 27.0974118,21.4615294 27.1194118,21.4718824 C27.1543529,21.4861176 27.188,21.5029412 27.2255294,21.5184706 C27.2449412,21.5275294 27.2656471,21.5378824 27.2863529,21.5482353 C27.3342353,21.5715294 27.3808235,21.5961176 27.4287059,21.6207059 C27.4532941,21.6336471 27.4778824,21.6478824 27.5024706,21.6621176 C27.5296471,21.6763529 27.5568235,21.6918824 27.5827059,21.7074118 C27.6085882,21.7229412 27.6344706,21.7371765 27.6603529,21.754 C27.694,21.7747059 27.7276471,21.7954118 27.76,21.8174118 C27.7962353,21.842 27.8324706,21.8665882 27.8674118,21.8911765 C27.8868235,21.9041176 27.9075294,21.9183529 27.9269412,21.9325882 C27.9541176,21.9532941 27.9825882,21.974 28.0097647,21.996 C28.0252941,22.0076471 28.0395294,22.018 28.0550588,22.0309412 C28.1081176,22.0723529 28.1624706,22.1163529 28.2142353,22.1629412 C28.2258824,22.1707059 28.2362353,22.1810588 28.2478824,22.1914118 C28.2776471,22.2172941 28.3074118,22.2444706 28.3358824,22.2716471 C28.3462353,22.2807059 28.3552941,22.2897647 28.3643529,22.2988235 C28.4588235,22.3894118 28.5494118,22.4825882 28.6348235,22.5809412 C28.6412941,22.5874118 28.6464706,22.5938824 28.6529412,22.6003529 C28.7409412,22.7038824 28.8250588,22.8112941 28.9027059,22.9212941 C28.9052941,22.9251765 28.9091765,22.9290588 28.9104706,22.9329412 C29.0204706,23.0869412 29.1188235,23.25 29.2068235,23.4182353 C29.5135294,24.0070588 29.6869412,24.6761176 29.6869412,25.3852941 C29.6869412,27.7405882 27.7768235,29.6507059 25.4228235,29.6507059 C23.0662353,29.6507059 21.1561176,27.7405882 21.1561176,25.3852941 C21.1561176,24.6761176 21.3308235,24.0070588 21.6375294,23.4182353 L21.6375294,23.4182353 Z M33.4334118,32.0978824 C33.4334118,32.8368235 32.8355294,33.4347059 32.0978824,33.4347059 L18.7451765,33.4347059 C18.0088235,33.4347059 17.4096471,32.8368235 17.4096471,32.0978824 L17.4096471,23.4195294 L19.2343529,23.4195294 C19.0376471,24.0394118 18.9315294,24.6994118 18.9315294,25.3852941 C18.9315294,28.97 21.8381176,31.8765882 25.4228235,31.8765882 C29.0075294,31.8765882 31.9141176,28.97 31.9141176,25.3852941 C31.9141176,24.6994118 31.8067059,24.0394118 31.61,23.4195294 L33.4334118,23.4195294 L33.4334118,32.0978824 L33.4334118,32.0978824 Z M33.4709412,20.0703529 C33.4709412,20.6501176 33.0011765,21.1198824 32.4227059,21.1198824 L30.7364706,21.1198824 C30.158,21.1198824 29.6869412,20.6501176 29.6869412,20.0703529 L29.6869412,18.3854118 C29.6869412,17.8056471 30.158,17.3358824 30.7364706,17.3358824 L32.4227059,17.3358824 C33.0011765,17.3358824 33.4709412,17.8056471 33.4709412,18.3854118 L33.4709412,20.0703529 L33.4709412,20.0703529 Z" id="Twitter-Copy"></path>
                        </g>
                    </g>
                </g>
            </g>
        </g>
    </g>
</svg>