<?xml version="1.0" encoding="UTF-8" standalone="no"?>
<svg width="56px" height="60px" viewBox="0 0 56 60" version="1.1" xmlns="http://www.w3.org/2000/svg" xmlns:xlink="http://www.w3.org/1999/xlink" xmlns:sketch="http://www.bohemiancoding.com/sketch/ns">
    <!-- Generator: Sketch 3.3.3 (12081) - http://www.bohemiancoding.com/sketch -->
    <title>Imported Layers</title>
    <desc>Created with Sketch.</desc>
    <defs>
        <path id="path-1" d="M0,59.6431275 L55.7110452,59.6431275 L55.7110452,0.642982008 L0,0.642982008 L0,59.6431275 Z"></path>
    </defs>
    <g id="Home" stroke="none" stroke-width="1" fill="none" fill-rule="evenodd" sketch:type="MSPage">
        <g id="DEUTSCH-LERNEN" sketch:type="MSArtboardGroup" transform="translate(-1041.000000, -3713.000000)">
            <g id="partners-+-certifates" sketch:type="MSLayerGroup" transform="translate(-1.000000, 3685.000000)">
                <g id="Imported-Layers" transform="translate(1042.293046, 27.778950)">
                    <path d="M34.7261199,13.9994058 C29.2913218,13.9994058 24.8704568,18.3257146 24.8704568,23.6441359 C24.8704568,28.9611025 29.2913218,33.2874113 34.7261199,33.2874113 C35.8753412,33.2874113 36.9809211,33.0924801 38.006492,32.7375308 L35.283274,23.2979148 L41.5239818,30.6209271 C43.4078318,28.8621822 44.5817831,26.3848104 44.5817831,23.6441359 C44.5817831,18.3257146 40.1609181,13.9994058 34.7261199,13.9994058" id="Fill-1" fill="#FFFFFF" sketch:type="MSShapeGroup"></path>
                    <path d="M53.9792124,1.85955634 L1.73183276,1.85955634 C1.39288523,1.86973931 1.21686527,2.04284985 1.21686527,2.37452383 L1.21686527,40.8079733 L54.4941799,40.8079733 L54.4941799,2.37452383 C54.483997,2.0355763 54.3108864,1.85955634 53.9792124,1.85955634 L53.9792124,1.85955634 Z M21.1173039,14.5970008 L15.2533662,14.5970008 L15.2533662,35.2364324 L12.0180902,35.2364324 L12.0180902,14.5970008 L6.15415246,14.5970008 L6.15415246,11.3602701 L21.1173039,11.3602701 L21.1173039,14.5970008 Z M39.8467006,39.1103262 L38.9171407,35.8881426 C37.6006277,36.3260105 36.1910133,36.5631283 34.7261199,36.5631283 C27.4860262,36.5631283 21.5944489,30.7675619 21.5944489,23.643845 C21.5944489,16.520128 27.4860262,10.7245617 34.7261199,10.7245617 C41.9676684,10.7245617 47.857791,16.520128 47.857791,23.643845 C47.857791,27.3809961 46.2357888,30.7515601 43.6493137,33.1125551 L48.7597114,39.1103262 L39.8467006,39.1103262 Z" id="Fill-3" fill="#FFFFFF" sketch:type="MSShapeGroup"></path>
                    <g id="Group-7">
                        <mask id="mask-2" sketch:name="Clip 6" fill="white">
                            <use xlink:href="#path-1"></use>
                        </mask>
                        <g id="Clip-6"></g>
                        <path d="M53.9792124,59.642982 L1.73183276,59.642982 C0.46041585,59.642982 0.000727355213,58.6072282 0.000727355213,57.9118766 L0.000727355213,2.37394194 C0.000727355213,1.10397974 1.03502647,0.642836537 1.73183276,0.642836537 L53.9792124,0.642836537 C55.2491746,0.642836537 55.7103178,1.67859036 55.7103178,2.37394194 L55.7103178,57.9118766 C55.7103178,59.1818388 54.674564,59.642982 53.9792124,59.642982 L53.9792124,59.642982 Z M1.73183276,1.85897445 C1.39288523,1.86915743 1.21686527,2.04226797 1.21686527,2.37394194 L1.21686527,57.9118766 C1.22559353,58.2508241 1.40015879,58.4268441 1.73183276,58.4268441 L53.9733936,58.4268441 C54.3196147,58.4152064 54.4941799,58.2420959 54.4941799,57.9118766 L54.4941799,2.37394194 C54.483997,2.03499442 54.3108864,1.85897445 53.9792124,1.85897445 L1.73183276,1.85897445 Z" id="Fill-5" fill="#FFFFFF" sketch:type="MSShapeGroup" mask="url(#mask-2)"></path>
                    </g>
                    <path d="M39.1413116,44.5262131 L43.6727345,44.5262131 L43.6727345,56.0766139 L45.5740411,56.0766139 L45.5740411,44.5262131 L50.181109,44.5262131 L50.181109,42.8431132 L39.1413116,42.8431132 L39.1413116,44.5262131 Z M34.67826,44.677503 C35.0783053,44.8157005 35.3896134,45.054273 35.6092746,45.3917658 C35.8303906,45.7292587 35.9409486,46.1060287 35.9409486,46.5220758 C35.9409486,46.9453966 35.8420283,47.3221666 35.642733,47.6523858 C35.4448924,47.9840598 35.1670427,48.2313606 34.8106386,48.3957429 C34.4542346,48.5586704 33.7967055,48.6415889 32.8380513,48.6415889 L32.1194243,48.6415889 L32.1194243,44.4694794 L32.6867614,44.4694794 C33.6134119,44.4694794 34.2782146,44.5393055 34.67826,44.677503 L34.67826,44.677503 Z M32.1194243,56.0766139 L32.1194243,50.3246889 L32.6125712,50.3246889 C33.2308231,50.3246889 33.6701456,50.3959697 33.9334482,50.5370766 C34.1952961,50.6781835 34.4891476,50.9109372 34.813548,51.2309735 C35.1394032,51.5524645 35.4972619,51.9845135 35.8871243,52.5271205 L36.5199234,53.5585102 L37.1061717,54.5244379 L37.4742134,55.0437695 C37.5309471,55.1208692 37.5687696,55.1732388 37.5876808,55.2052424 L38.1637462,56.0766139 L40.4156379,56.0766139 L39.7159222,55.1295974 C39.4380725,54.7513727 39.068576,54.1869451 38.6088875,53.4363145 C37.8771682,52.2449067 37.3098311,51.4099029 36.9054216,50.9298484 C36.5024668,50.4512487 36.0893291,50.073024 35.6660083,49.7951743 C36.38609,49.5173246 36.9374253,49.098368 37.3214688,48.5368498 C37.7069671,47.9753316 37.8989889,47.3105289 37.8989889,46.5409871 C37.8989889,45.4121318 37.506217,44.5174849 36.7206734,43.8541369 C35.9365845,43.1922437 34.8746459,42.8620244 33.537767,42.8620244 L30.2268461,42.8620244 L30.2268461,56.0766139 L32.1194243,56.0766139 Z M20.3493623,56.0577027 L28.0200503,56.0577027 L28.0200503,54.373148 L22.2404858,54.373148 L22.2404858,50.2679552 L27.6520086,50.2679552 L27.6520086,48.5746723 L22.2404858,48.5746723 L22.2404858,44.5451244 L27.841121,44.5451244 L27.841121,42.8620244 L20.3493623,42.8620244 L20.3493623,56.0577027 Z M13.1950964,54.4866154 C11.6618316,54.4866154 10.4035071,54.0196534 9.42012284,53.087184 C8.43673859,52.1532599 7.94504646,50.9618521 7.94504646,49.5115058 C7.94504646,48.0727972 8.44401214,46.8770252 9.4433982,45.9212804 C10.4427843,44.9655357 11.6996541,44.4883907 13.2140076,44.4883907 C14.689084,44.4883907 16.1990734,44.9306226 17.7439759,45.8121772 L17.7439759,43.778492 C16.0477835,43.0540462 14.5057905,42.6918233 13.1179967,42.6918233 C11.1075869,42.6918233 9.41575871,43.346443 8.04396677,44.6585918 C6.67217484,45.9707406 5.98700623,47.5883786 5.98700623,49.5115058 C5.98700623,50.7218248 6.28522187,51.8477707 6.88456256,52.8878887 C7.48390326,53.9294613 8.29708639,54.7455539 9.32556666,55.337621 C10.3540469,55.9311429 11.6050979,56.2279038 13.0801743,56.2279038 C14.8971076,56.2279038 16.4987438,55.8496791 17.8865375,55.091775 L17.8865375,53.0115391 C16.3605463,53.9949233 14.7967326,54.4866154 13.1950964,54.4866154 L13.1950964,54.4866154 Z" id="Fill-8" fill="#FFFFFF" sketch:type="MSShapeGroup"></path>
                </g>
            </g>
        </g>
    </g>
</svg>