<?xml version="1.0" encoding="UTF-8" standalone="no"?>
<svg width="50px" height="50px" viewBox="0 0 50 50" version="1.1" xmlns="http://www.w3.org/2000/svg" xmlns:xlink="http://www.w3.org/1999/xlink" xmlns:sketch="http://www.bohemiancoding.com/sketch/ns">
    <!-- Generator: Sketch 3.3.3 (12081) - http://www.bohemiancoding.com/sketch -->
    <title>Twitter</title>
    <desc>Created with Sketch.</desc>
    <defs></defs>
    <g id="Home" stroke="none" stroke-width="1" fill="none" fill-rule="evenodd" sketch:type="MSPage">
        <g id="DEUTSCH-LERNEN" sketch:type="MSArtboardGroup" transform="translate(-1052.000000, -3906.000000)" fill="#FFFFFF">
            <g id="footer" sketch:type="MSLayerGroup" transform="translate(-1.000000, 3800.000000)">
                <g id="Container-5-Copy-2" transform="translate(126.000000, 49.000000)" sketch:type="MSShapeGroup">
                    <g id="social-btns" transform="translate(857.000000, 57.000000)">
                        <path d="M95,50 C108.807119,50 120,38.8071187 120,25 C120,11.1928813 108.807119,0 95,0 C81.1928813,0 70,11.1928813 70,25 C70,38.8071187 81.1928813,50 95,50 Z M94.8522209,22.406648 L94.9038219,23.2717044 L94.0438063,23.1657791 C90.9133496,22.7597322 88.1785001,21.3827037 85.8564581,19.0700019 L84.7212375,17.9224781 L84.4288322,18.7698803 C83.809621,20.658881 84.2052282,22.653807 85.4952515,23.9955271 C86.183264,24.737004 86.0284612,24.8429293 84.8416397,24.401574 C84.4288322,24.2603403 84.0676257,24.154415 84.0332251,24.2073777 C83.9128229,24.3309571 84.3256304,25.9374905 84.6524363,26.5730421 C85.0996444,27.4557527 86.0112609,28.3208091 87.0088789,28.8327813 L87.8516942,29.2388281 L86.8540761,29.2564824 C85.8908587,29.2564824 85.8564581,29.2741366 85.9596599,29.644875 C86.3036662,30.7923988 87.6624908,32.0105395 89.1761182,32.5401658 L90.2425375,32.9109043 L89.3137207,33.4758391 C87.9376957,34.2879329 86.3208665,34.7469424 84.7040372,34.7822508 C83.9300232,34.799905 83.2936117,34.8705219 83.2936117,34.9234845 C83.2936117,35.1000266 85.3920497,36.0886625 86.6132718,36.4770552 C90.2769381,37.624579 94.6286169,37.130261 97.896676,35.1706435 C100.218718,33.7759607 102.54076,31.0042494 103.62438,28.3208091 C104.20919,26.8908179 104.794001,24.2779945 104.794001,23.0245454 C104.794001,22.2124517 104.845602,22.1065264 105.808819,21.1355447 C106.37643,20.5706099 106.909639,19.9527125 107.012841,19.7761704 C107.184844,19.4407403 107.167644,19.4407403 106.290428,19.740862 C104.828402,20.2704883 104.621998,20.1998715 105.344411,19.4054319 C105.877621,18.8404971 106.514032,17.8165528 106.514032,17.5164312 C106.514032,17.4634686 106.256027,17.5517396 105.963622,17.7106275 C105.654016,17.8871697 104.966004,18.1519828 104.449995,18.3108708 L103.521178,18.6109924 L102.678363,18.0284034 C102.213954,17.7106275 101.560342,17.3575433 101.216336,17.251618 C100.33912,17.004459 98.997496,17.0397675 98.2062816,17.3222349 C96.0562427,18.1166744 94.6974181,20.164563 94.8522209,22.406648 Z" id="Twitter"></path>
                    </g>
                </g>
            </g>
        </g>
    </g>
</svg>